%TF.GenerationSoftware,KiCad,Pcbnew,9.0.2*%
%TF.CreationDate,2025-07-11T15:40:20+10:00*%
%TF.ProjectId,Exportable hackpad pccb,4578706f-7274-4616-926c-65206861636b,rev?*%
%TF.SameCoordinates,Original*%
%TF.FileFunction,Legend,Top*%
%TF.FilePolarity,Positive*%
%FSLAX46Y46*%
G04 Gerber Fmt 4.6, Leading zero omitted, Abs format (unit mm)*
G04 Created by KiCad (PCBNEW 9.0.2) date 2025-07-11 15:40:20*
%MOMM*%
%LPD*%
G01*
G04 APERTURE LIST*
%ADD10C,0.150000*%
%ADD11C,0.100000*%
%ADD12C,0.300000*%
%ADD13C,0.120000*%
%ADD14C,0.000000*%
%ADD15C,0.127000*%
%ADD16C,0.504000*%
G04 APERTURE END LIST*
D10*
X151255529Y-90409819D02*
X151255529Y-89409819D01*
X151255529Y-89409819D02*
X151826957Y-90409819D01*
X151826957Y-90409819D02*
X151826957Y-89409819D01*
X152684100Y-90362200D02*
X152588862Y-90409819D01*
X152588862Y-90409819D02*
X152398386Y-90409819D01*
X152398386Y-90409819D02*
X152303148Y-90362200D01*
X152303148Y-90362200D02*
X152255529Y-90266961D01*
X152255529Y-90266961D02*
X152255529Y-89886009D01*
X152255529Y-89886009D02*
X152303148Y-89790771D01*
X152303148Y-89790771D02*
X152398386Y-89743152D01*
X152398386Y-89743152D02*
X152588862Y-89743152D01*
X152588862Y-89743152D02*
X152684100Y-89790771D01*
X152684100Y-89790771D02*
X152731719Y-89886009D01*
X152731719Y-89886009D02*
X152731719Y-89981247D01*
X152731719Y-89981247D02*
X152255529Y-90076485D01*
X153303148Y-90409819D02*
X153207910Y-90362200D01*
X153207910Y-90362200D02*
X153160291Y-90314580D01*
X153160291Y-90314580D02*
X153112672Y-90219342D01*
X153112672Y-90219342D02*
X153112672Y-89933628D01*
X153112672Y-89933628D02*
X153160291Y-89838390D01*
X153160291Y-89838390D02*
X153207910Y-89790771D01*
X153207910Y-89790771D02*
X153303148Y-89743152D01*
X153303148Y-89743152D02*
X153446005Y-89743152D01*
X153446005Y-89743152D02*
X153541243Y-89790771D01*
X153541243Y-89790771D02*
X153588862Y-89838390D01*
X153588862Y-89838390D02*
X153636481Y-89933628D01*
X153636481Y-89933628D02*
X153636481Y-90219342D01*
X153636481Y-90219342D02*
X153588862Y-90314580D01*
X153588862Y-90314580D02*
X153541243Y-90362200D01*
X153541243Y-90362200D02*
X153446005Y-90409819D01*
X153446005Y-90409819D02*
X153303148Y-90409819D01*
X154779339Y-89505057D02*
X154826958Y-89457438D01*
X154826958Y-89457438D02*
X154922196Y-89409819D01*
X154922196Y-89409819D02*
X155160291Y-89409819D01*
X155160291Y-89409819D02*
X155255529Y-89457438D01*
X155255529Y-89457438D02*
X155303148Y-89505057D01*
X155303148Y-89505057D02*
X155350767Y-89600295D01*
X155350767Y-89600295D02*
X155350767Y-89695533D01*
X155350767Y-89695533D02*
X155303148Y-89838390D01*
X155303148Y-89838390D02*
X154731720Y-90409819D01*
X154731720Y-90409819D02*
X155350767Y-90409819D01*
X167260291Y-80369819D02*
X167926957Y-81369819D01*
X167926957Y-80369819D02*
X167260291Y-81369819D01*
X168307910Y-81369819D02*
X168307910Y-80703152D01*
X168307910Y-80369819D02*
X168260291Y-80417438D01*
X168260291Y-80417438D02*
X168307910Y-80465057D01*
X168307910Y-80465057D02*
X168355529Y-80417438D01*
X168355529Y-80417438D02*
X168307910Y-80369819D01*
X168307910Y-80369819D02*
X168307910Y-80465057D01*
X169212671Y-81369819D02*
X169212671Y-80846009D01*
X169212671Y-80846009D02*
X169165052Y-80750771D01*
X169165052Y-80750771D02*
X169069814Y-80703152D01*
X169069814Y-80703152D02*
X168879338Y-80703152D01*
X168879338Y-80703152D02*
X168784100Y-80750771D01*
X169212671Y-81322200D02*
X169117433Y-81369819D01*
X169117433Y-81369819D02*
X168879338Y-81369819D01*
X168879338Y-81369819D02*
X168784100Y-81322200D01*
X168784100Y-81322200D02*
X168736481Y-81226961D01*
X168736481Y-81226961D02*
X168736481Y-81131723D01*
X168736481Y-81131723D02*
X168784100Y-81036485D01*
X168784100Y-81036485D02*
X168879338Y-80988866D01*
X168879338Y-80988866D02*
X169117433Y-80988866D01*
X169117433Y-80988866D02*
X169212671Y-80941247D01*
X169831719Y-81369819D02*
X169736481Y-81322200D01*
X169736481Y-81322200D02*
X169688862Y-81274580D01*
X169688862Y-81274580D02*
X169641243Y-81179342D01*
X169641243Y-81179342D02*
X169641243Y-80893628D01*
X169641243Y-80893628D02*
X169688862Y-80798390D01*
X169688862Y-80798390D02*
X169736481Y-80750771D01*
X169736481Y-80750771D02*
X169831719Y-80703152D01*
X169831719Y-80703152D02*
X169974576Y-80703152D01*
X169974576Y-80703152D02*
X170069814Y-80750771D01*
X170069814Y-80750771D02*
X170117433Y-80798390D01*
X170117433Y-80798390D02*
X170165052Y-80893628D01*
X170165052Y-80893628D02*
X170165052Y-81179342D01*
X170165052Y-81179342D02*
X170117433Y-81274580D01*
X170117433Y-81274580D02*
X170069814Y-81322200D01*
X170069814Y-81322200D02*
X169974576Y-81369819D01*
X169974576Y-81369819D02*
X169831719Y-81369819D01*
X171355529Y-81369819D02*
X171355529Y-80369819D01*
X171355529Y-80846009D02*
X171926957Y-80846009D01*
X171926957Y-81369819D02*
X171926957Y-80369819D01*
X172784100Y-81322200D02*
X172688862Y-81369819D01*
X172688862Y-81369819D02*
X172498386Y-81369819D01*
X172498386Y-81369819D02*
X172403148Y-81322200D01*
X172403148Y-81322200D02*
X172355529Y-81226961D01*
X172355529Y-81226961D02*
X172355529Y-80846009D01*
X172355529Y-80846009D02*
X172403148Y-80750771D01*
X172403148Y-80750771D02*
X172498386Y-80703152D01*
X172498386Y-80703152D02*
X172688862Y-80703152D01*
X172688862Y-80703152D02*
X172784100Y-80750771D01*
X172784100Y-80750771D02*
X172831719Y-80846009D01*
X172831719Y-80846009D02*
X172831719Y-80941247D01*
X172831719Y-80941247D02*
X172355529Y-81036485D01*
X173260291Y-81369819D02*
X173260291Y-80703152D01*
X173260291Y-80893628D02*
X173307910Y-80798390D01*
X173307910Y-80798390D02*
X173355529Y-80750771D01*
X173355529Y-80750771D02*
X173450767Y-80703152D01*
X173450767Y-80703152D02*
X173546005Y-80703152D01*
X174260291Y-81322200D02*
X174165053Y-81369819D01*
X174165053Y-81369819D02*
X173974577Y-81369819D01*
X173974577Y-81369819D02*
X173879339Y-81322200D01*
X173879339Y-81322200D02*
X173831720Y-81226961D01*
X173831720Y-81226961D02*
X173831720Y-80846009D01*
X173831720Y-80846009D02*
X173879339Y-80750771D01*
X173879339Y-80750771D02*
X173974577Y-80703152D01*
X173974577Y-80703152D02*
X174165053Y-80703152D01*
X174165053Y-80703152D02*
X174260291Y-80750771D01*
X174260291Y-80750771D02*
X174307910Y-80846009D01*
X174307910Y-80846009D02*
X174307910Y-80941247D01*
X174307910Y-80941247D02*
X173831720Y-81036485D01*
X122514100Y-73939819D02*
X122323624Y-73939819D01*
X122323624Y-73939819D02*
X122228386Y-73987438D01*
X122228386Y-73987438D02*
X122180767Y-74035057D01*
X122180767Y-74035057D02*
X122085529Y-74177914D01*
X122085529Y-74177914D02*
X122037910Y-74368390D01*
X122037910Y-74368390D02*
X122037910Y-74749342D01*
X122037910Y-74749342D02*
X122085529Y-74844580D01*
X122085529Y-74844580D02*
X122133148Y-74892200D01*
X122133148Y-74892200D02*
X122228386Y-74939819D01*
X122228386Y-74939819D02*
X122418862Y-74939819D01*
X122418862Y-74939819D02*
X122514100Y-74892200D01*
X122514100Y-74892200D02*
X122561719Y-74844580D01*
X122561719Y-74844580D02*
X122609338Y-74749342D01*
X122609338Y-74749342D02*
X122609338Y-74511247D01*
X122609338Y-74511247D02*
X122561719Y-74416009D01*
X122561719Y-74416009D02*
X122514100Y-74368390D01*
X122514100Y-74368390D02*
X122418862Y-74320771D01*
X122418862Y-74320771D02*
X122228386Y-74320771D01*
X122228386Y-74320771D02*
X122133148Y-74368390D01*
X122133148Y-74368390D02*
X122085529Y-74416009D01*
X122085529Y-74416009D02*
X122037910Y-74511247D01*
X123799815Y-74939819D02*
X123799815Y-73939819D01*
X123895053Y-74558866D02*
X124180767Y-74939819D01*
X124180767Y-74273152D02*
X123799815Y-74654104D01*
X124990291Y-74892200D02*
X124895053Y-74939819D01*
X124895053Y-74939819D02*
X124704577Y-74939819D01*
X124704577Y-74939819D02*
X124609339Y-74892200D01*
X124609339Y-74892200D02*
X124561720Y-74796961D01*
X124561720Y-74796961D02*
X124561720Y-74416009D01*
X124561720Y-74416009D02*
X124609339Y-74320771D01*
X124609339Y-74320771D02*
X124704577Y-74273152D01*
X124704577Y-74273152D02*
X124895053Y-74273152D01*
X124895053Y-74273152D02*
X124990291Y-74320771D01*
X124990291Y-74320771D02*
X125037910Y-74416009D01*
X125037910Y-74416009D02*
X125037910Y-74511247D01*
X125037910Y-74511247D02*
X124561720Y-74606485D01*
X125371244Y-74273152D02*
X125609339Y-74939819D01*
X125847434Y-74273152D02*
X125609339Y-74939819D01*
X125609339Y-74939819D02*
X125514101Y-75177914D01*
X125514101Y-75177914D02*
X125466482Y-75225533D01*
X125466482Y-75225533D02*
X125371244Y-75273152D01*
X126990292Y-74939819D02*
X126990292Y-73939819D01*
X126990292Y-74416009D02*
X127561720Y-74416009D01*
X127561720Y-74939819D02*
X127561720Y-73939819D01*
X128466482Y-74939819D02*
X128466482Y-74416009D01*
X128466482Y-74416009D02*
X128418863Y-74320771D01*
X128418863Y-74320771D02*
X128323625Y-74273152D01*
X128323625Y-74273152D02*
X128133149Y-74273152D01*
X128133149Y-74273152D02*
X128037911Y-74320771D01*
X128466482Y-74892200D02*
X128371244Y-74939819D01*
X128371244Y-74939819D02*
X128133149Y-74939819D01*
X128133149Y-74939819D02*
X128037911Y-74892200D01*
X128037911Y-74892200D02*
X127990292Y-74796961D01*
X127990292Y-74796961D02*
X127990292Y-74701723D01*
X127990292Y-74701723D02*
X128037911Y-74606485D01*
X128037911Y-74606485D02*
X128133149Y-74558866D01*
X128133149Y-74558866D02*
X128371244Y-74558866D01*
X128371244Y-74558866D02*
X128466482Y-74511247D01*
X129371244Y-74892200D02*
X129276006Y-74939819D01*
X129276006Y-74939819D02*
X129085530Y-74939819D01*
X129085530Y-74939819D02*
X128990292Y-74892200D01*
X128990292Y-74892200D02*
X128942673Y-74844580D01*
X128942673Y-74844580D02*
X128895054Y-74749342D01*
X128895054Y-74749342D02*
X128895054Y-74463628D01*
X128895054Y-74463628D02*
X128942673Y-74368390D01*
X128942673Y-74368390D02*
X128990292Y-74320771D01*
X128990292Y-74320771D02*
X129085530Y-74273152D01*
X129085530Y-74273152D02*
X129276006Y-74273152D01*
X129276006Y-74273152D02*
X129371244Y-74320771D01*
X129799816Y-74939819D02*
X129799816Y-73939819D01*
X129895054Y-74558866D02*
X130180768Y-74939819D01*
X130180768Y-74273152D02*
X129799816Y-74654104D01*
X130609340Y-74273152D02*
X130609340Y-75273152D01*
X130609340Y-74320771D02*
X130704578Y-74273152D01*
X130704578Y-74273152D02*
X130895054Y-74273152D01*
X130895054Y-74273152D02*
X130990292Y-74320771D01*
X130990292Y-74320771D02*
X131037911Y-74368390D01*
X131037911Y-74368390D02*
X131085530Y-74463628D01*
X131085530Y-74463628D02*
X131085530Y-74749342D01*
X131085530Y-74749342D02*
X131037911Y-74844580D01*
X131037911Y-74844580D02*
X130990292Y-74892200D01*
X130990292Y-74892200D02*
X130895054Y-74939819D01*
X130895054Y-74939819D02*
X130704578Y-74939819D01*
X130704578Y-74939819D02*
X130609340Y-74892200D01*
X131942673Y-74939819D02*
X131942673Y-74416009D01*
X131942673Y-74416009D02*
X131895054Y-74320771D01*
X131895054Y-74320771D02*
X131799816Y-74273152D01*
X131799816Y-74273152D02*
X131609340Y-74273152D01*
X131609340Y-74273152D02*
X131514102Y-74320771D01*
X131942673Y-74892200D02*
X131847435Y-74939819D01*
X131847435Y-74939819D02*
X131609340Y-74939819D01*
X131609340Y-74939819D02*
X131514102Y-74892200D01*
X131514102Y-74892200D02*
X131466483Y-74796961D01*
X131466483Y-74796961D02*
X131466483Y-74701723D01*
X131466483Y-74701723D02*
X131514102Y-74606485D01*
X131514102Y-74606485D02*
X131609340Y-74558866D01*
X131609340Y-74558866D02*
X131847435Y-74558866D01*
X131847435Y-74558866D02*
X131942673Y-74511247D01*
X132847435Y-74939819D02*
X132847435Y-73939819D01*
X132847435Y-74892200D02*
X132752197Y-74939819D01*
X132752197Y-74939819D02*
X132561721Y-74939819D01*
X132561721Y-74939819D02*
X132466483Y-74892200D01*
X132466483Y-74892200D02*
X132418864Y-74844580D01*
X132418864Y-74844580D02*
X132371245Y-74749342D01*
X132371245Y-74749342D02*
X132371245Y-74463628D01*
X132371245Y-74463628D02*
X132418864Y-74368390D01*
X132418864Y-74368390D02*
X132466483Y-74320771D01*
X132466483Y-74320771D02*
X132561721Y-74273152D01*
X132561721Y-74273152D02*
X132752197Y-74273152D01*
X132752197Y-74273152D02*
X132847435Y-74320771D01*
X134085531Y-74939819D02*
X134085531Y-73939819D01*
X134085531Y-74320771D02*
X134180769Y-74273152D01*
X134180769Y-74273152D02*
X134371245Y-74273152D01*
X134371245Y-74273152D02*
X134466483Y-74320771D01*
X134466483Y-74320771D02*
X134514102Y-74368390D01*
X134514102Y-74368390D02*
X134561721Y-74463628D01*
X134561721Y-74463628D02*
X134561721Y-74749342D01*
X134561721Y-74749342D02*
X134514102Y-74844580D01*
X134514102Y-74844580D02*
X134466483Y-74892200D01*
X134466483Y-74892200D02*
X134371245Y-74939819D01*
X134371245Y-74939819D02*
X134180769Y-74939819D01*
X134180769Y-74939819D02*
X134085531Y-74892200D01*
X134895055Y-74273152D02*
X135133150Y-74939819D01*
X135371245Y-74273152D02*
X135133150Y-74939819D01*
X135133150Y-74939819D02*
X135037912Y-75177914D01*
X135037912Y-75177914D02*
X134990293Y-75225533D01*
X134990293Y-75225533D02*
X134895055Y-75273152D01*
X136418865Y-74273152D02*
X136656960Y-74939819D01*
X136656960Y-74939819D02*
X136895055Y-74273152D01*
X137276008Y-74939819D02*
X137276008Y-74273152D01*
X137276008Y-73939819D02*
X137228389Y-73987438D01*
X137228389Y-73987438D02*
X137276008Y-74035057D01*
X137276008Y-74035057D02*
X137323627Y-73987438D01*
X137323627Y-73987438D02*
X137276008Y-73939819D01*
X137276008Y-73939819D02*
X137276008Y-74035057D01*
X137752198Y-74939819D02*
X137752198Y-73939819D01*
X137847436Y-74558866D02*
X138133150Y-74939819D01*
X138133150Y-74273152D02*
X137752198Y-74654104D01*
X128895529Y-90959819D02*
X128895529Y-89959819D01*
X128895529Y-89959819D02*
X129466957Y-90959819D01*
X129466957Y-90959819D02*
X129466957Y-89959819D01*
X130324100Y-90912200D02*
X130228862Y-90959819D01*
X130228862Y-90959819D02*
X130038386Y-90959819D01*
X130038386Y-90959819D02*
X129943148Y-90912200D01*
X129943148Y-90912200D02*
X129895529Y-90816961D01*
X129895529Y-90816961D02*
X129895529Y-90436009D01*
X129895529Y-90436009D02*
X129943148Y-90340771D01*
X129943148Y-90340771D02*
X130038386Y-90293152D01*
X130038386Y-90293152D02*
X130228862Y-90293152D01*
X130228862Y-90293152D02*
X130324100Y-90340771D01*
X130324100Y-90340771D02*
X130371719Y-90436009D01*
X130371719Y-90436009D02*
X130371719Y-90531247D01*
X130371719Y-90531247D02*
X129895529Y-90626485D01*
X130943148Y-90959819D02*
X130847910Y-90912200D01*
X130847910Y-90912200D02*
X130800291Y-90864580D01*
X130800291Y-90864580D02*
X130752672Y-90769342D01*
X130752672Y-90769342D02*
X130752672Y-90483628D01*
X130752672Y-90483628D02*
X130800291Y-90388390D01*
X130800291Y-90388390D02*
X130847910Y-90340771D01*
X130847910Y-90340771D02*
X130943148Y-90293152D01*
X130943148Y-90293152D02*
X131086005Y-90293152D01*
X131086005Y-90293152D02*
X131181243Y-90340771D01*
X131181243Y-90340771D02*
X131228862Y-90388390D01*
X131228862Y-90388390D02*
X131276481Y-90483628D01*
X131276481Y-90483628D02*
X131276481Y-90769342D01*
X131276481Y-90769342D02*
X131228862Y-90864580D01*
X131228862Y-90864580D02*
X131181243Y-90912200D01*
X131181243Y-90912200D02*
X131086005Y-90959819D01*
X131086005Y-90959819D02*
X130943148Y-90959819D01*
X132990767Y-90959819D02*
X132419339Y-90959819D01*
X132705053Y-90959819D02*
X132705053Y-89959819D01*
X132705053Y-89959819D02*
X132609815Y-90102676D01*
X132609815Y-90102676D02*
X132514577Y-90197914D01*
X132514577Y-90197914D02*
X132419339Y-90245533D01*
D11*
X159972500Y-103838669D02*
X159782024Y-103838669D01*
X159782024Y-103838669D02*
X159686786Y-103886288D01*
X159686786Y-103886288D02*
X159639167Y-103933907D01*
X159639167Y-103933907D02*
X159543929Y-104076764D01*
X159543929Y-104076764D02*
X159496310Y-104267240D01*
X159496310Y-104267240D02*
X159496310Y-104648192D01*
X159496310Y-104648192D02*
X159543929Y-104743430D01*
X159543929Y-104743430D02*
X159591548Y-104791050D01*
X159591548Y-104791050D02*
X159686786Y-104838669D01*
X159686786Y-104838669D02*
X159877262Y-104838669D01*
X159877262Y-104838669D02*
X159972500Y-104791050D01*
X159972500Y-104791050D02*
X160020119Y-104743430D01*
X160020119Y-104743430D02*
X160067738Y-104648192D01*
X160067738Y-104648192D02*
X160067738Y-104410097D01*
X160067738Y-104410097D02*
X160020119Y-104314859D01*
X160020119Y-104314859D02*
X159972500Y-104267240D01*
X159972500Y-104267240D02*
X159877262Y-104219621D01*
X159877262Y-104219621D02*
X159686786Y-104219621D01*
X159686786Y-104219621D02*
X159591548Y-104267240D01*
X159591548Y-104267240D02*
X159543929Y-104314859D01*
X159543929Y-104314859D02*
X159496310Y-104410097D01*
X160496310Y-104743430D02*
X160543929Y-104791050D01*
X160543929Y-104791050D02*
X160496310Y-104838669D01*
X160496310Y-104838669D02*
X160448691Y-104791050D01*
X160448691Y-104791050D02*
X160496310Y-104743430D01*
X160496310Y-104743430D02*
X160496310Y-104838669D01*
X160877262Y-103838669D02*
X161496309Y-103838669D01*
X161496309Y-103838669D02*
X161162976Y-104219621D01*
X161162976Y-104219621D02*
X161305833Y-104219621D01*
X161305833Y-104219621D02*
X161401071Y-104267240D01*
X161401071Y-104267240D02*
X161448690Y-104314859D01*
X161448690Y-104314859D02*
X161496309Y-104410097D01*
X161496309Y-104410097D02*
X161496309Y-104648192D01*
X161496309Y-104648192D02*
X161448690Y-104743430D01*
X161448690Y-104743430D02*
X161401071Y-104791050D01*
X161401071Y-104791050D02*
X161305833Y-104838669D01*
X161305833Y-104838669D02*
X161020119Y-104838669D01*
X161020119Y-104838669D02*
X160924881Y-104791050D01*
X160924881Y-104791050D02*
X160877262Y-104743430D01*
X162401071Y-103838669D02*
X161924881Y-103838669D01*
X161924881Y-103838669D02*
X161877262Y-104314859D01*
X161877262Y-104314859D02*
X161924881Y-104267240D01*
X161924881Y-104267240D02*
X162020119Y-104219621D01*
X162020119Y-104219621D02*
X162258214Y-104219621D01*
X162258214Y-104219621D02*
X162353452Y-104267240D01*
X162353452Y-104267240D02*
X162401071Y-104314859D01*
X162401071Y-104314859D02*
X162448690Y-104410097D01*
X162448690Y-104410097D02*
X162448690Y-104648192D01*
X162448690Y-104648192D02*
X162401071Y-104743430D01*
X162401071Y-104743430D02*
X162353452Y-104791050D01*
X162353452Y-104791050D02*
X162258214Y-104838669D01*
X162258214Y-104838669D02*
X162020119Y-104838669D01*
X162020119Y-104838669D02*
X161924881Y-104791050D01*
X161924881Y-104791050D02*
X161877262Y-104743430D01*
X157797500Y-105433750D02*
X157797500Y-106067670D01*
X164147500Y-106067670D02*
X164147500Y-105433750D01*
X157797500Y-105481250D02*
X164147500Y-105481250D01*
X157797500Y-105481250D02*
X158924004Y-104894829D01*
X157797500Y-105481250D02*
X158924004Y-106067671D01*
X164147500Y-105481250D02*
X163020996Y-106067671D01*
X164147500Y-105481250D02*
X163020996Y-104894829D01*
X140922500Y-104697419D02*
X140732024Y-104697419D01*
X140732024Y-104697419D02*
X140636786Y-104745038D01*
X140636786Y-104745038D02*
X140589167Y-104792657D01*
X140589167Y-104792657D02*
X140493929Y-104935514D01*
X140493929Y-104935514D02*
X140446310Y-105125990D01*
X140446310Y-105125990D02*
X140446310Y-105506942D01*
X140446310Y-105506942D02*
X140493929Y-105602180D01*
X140493929Y-105602180D02*
X140541548Y-105649800D01*
X140541548Y-105649800D02*
X140636786Y-105697419D01*
X140636786Y-105697419D02*
X140827262Y-105697419D01*
X140827262Y-105697419D02*
X140922500Y-105649800D01*
X140922500Y-105649800D02*
X140970119Y-105602180D01*
X140970119Y-105602180D02*
X141017738Y-105506942D01*
X141017738Y-105506942D02*
X141017738Y-105268847D01*
X141017738Y-105268847D02*
X140970119Y-105173609D01*
X140970119Y-105173609D02*
X140922500Y-105125990D01*
X140922500Y-105125990D02*
X140827262Y-105078371D01*
X140827262Y-105078371D02*
X140636786Y-105078371D01*
X140636786Y-105078371D02*
X140541548Y-105125990D01*
X140541548Y-105125990D02*
X140493929Y-105173609D01*
X140493929Y-105173609D02*
X140446310Y-105268847D01*
X141446310Y-105602180D02*
X141493929Y-105649800D01*
X141493929Y-105649800D02*
X141446310Y-105697419D01*
X141446310Y-105697419D02*
X141398691Y-105649800D01*
X141398691Y-105649800D02*
X141446310Y-105602180D01*
X141446310Y-105602180D02*
X141446310Y-105697419D01*
X141827262Y-104697419D02*
X142446309Y-104697419D01*
X142446309Y-104697419D02*
X142112976Y-105078371D01*
X142112976Y-105078371D02*
X142255833Y-105078371D01*
X142255833Y-105078371D02*
X142351071Y-105125990D01*
X142351071Y-105125990D02*
X142398690Y-105173609D01*
X142398690Y-105173609D02*
X142446309Y-105268847D01*
X142446309Y-105268847D02*
X142446309Y-105506942D01*
X142446309Y-105506942D02*
X142398690Y-105602180D01*
X142398690Y-105602180D02*
X142351071Y-105649800D01*
X142351071Y-105649800D02*
X142255833Y-105697419D01*
X142255833Y-105697419D02*
X141970119Y-105697419D01*
X141970119Y-105697419D02*
X141874881Y-105649800D01*
X141874881Y-105649800D02*
X141827262Y-105602180D01*
X143351071Y-104697419D02*
X142874881Y-104697419D01*
X142874881Y-104697419D02*
X142827262Y-105173609D01*
X142827262Y-105173609D02*
X142874881Y-105125990D01*
X142874881Y-105125990D02*
X142970119Y-105078371D01*
X142970119Y-105078371D02*
X143208214Y-105078371D01*
X143208214Y-105078371D02*
X143303452Y-105125990D01*
X143303452Y-105125990D02*
X143351071Y-105173609D01*
X143351071Y-105173609D02*
X143398690Y-105268847D01*
X143398690Y-105268847D02*
X143398690Y-105506942D01*
X143398690Y-105506942D02*
X143351071Y-105602180D01*
X143351071Y-105602180D02*
X143303452Y-105649800D01*
X143303452Y-105649800D02*
X143208214Y-105697419D01*
X143208214Y-105697419D02*
X142970119Y-105697419D01*
X142970119Y-105697419D02*
X142874881Y-105649800D01*
X142874881Y-105649800D02*
X142827262Y-105602180D01*
X138747500Y-105433750D02*
X138747500Y-106926420D01*
X145097500Y-106926420D02*
X145097500Y-105433750D01*
X138747500Y-106340000D02*
X145097500Y-106340000D01*
X138747500Y-106340000D02*
X139874004Y-105753579D01*
X138747500Y-106340000D02*
X139874004Y-106926421D01*
X145097500Y-106340000D02*
X143970996Y-106926421D01*
X145097500Y-106340000D02*
X143970996Y-105753579D01*
D10*
X169164167Y-97466950D02*
X169307024Y-97514569D01*
X169307024Y-97514569D02*
X169545119Y-97514569D01*
X169545119Y-97514569D02*
X169640357Y-97466950D01*
X169640357Y-97466950D02*
X169687976Y-97419330D01*
X169687976Y-97419330D02*
X169735595Y-97324092D01*
X169735595Y-97324092D02*
X169735595Y-97228854D01*
X169735595Y-97228854D02*
X169687976Y-97133616D01*
X169687976Y-97133616D02*
X169640357Y-97085997D01*
X169640357Y-97085997D02*
X169545119Y-97038378D01*
X169545119Y-97038378D02*
X169354643Y-96990759D01*
X169354643Y-96990759D02*
X169259405Y-96943140D01*
X169259405Y-96943140D02*
X169211786Y-96895521D01*
X169211786Y-96895521D02*
X169164167Y-96800283D01*
X169164167Y-96800283D02*
X169164167Y-96705045D01*
X169164167Y-96705045D02*
X169211786Y-96609807D01*
X169211786Y-96609807D02*
X169259405Y-96562188D01*
X169259405Y-96562188D02*
X169354643Y-96514569D01*
X169354643Y-96514569D02*
X169592738Y-96514569D01*
X169592738Y-96514569D02*
X169735595Y-96562188D01*
X170068929Y-96514569D02*
X170307024Y-97514569D01*
X170307024Y-97514569D02*
X170497500Y-96800283D01*
X170497500Y-96800283D02*
X170687976Y-97514569D01*
X170687976Y-97514569D02*
X170926072Y-96514569D01*
X171211786Y-96514569D02*
X171830833Y-96514569D01*
X171830833Y-96514569D02*
X171497500Y-96895521D01*
X171497500Y-96895521D02*
X171640357Y-96895521D01*
X171640357Y-96895521D02*
X171735595Y-96943140D01*
X171735595Y-96943140D02*
X171783214Y-96990759D01*
X171783214Y-96990759D02*
X171830833Y-97085997D01*
X171830833Y-97085997D02*
X171830833Y-97324092D01*
X171830833Y-97324092D02*
X171783214Y-97419330D01*
X171783214Y-97419330D02*
X171735595Y-97466950D01*
X171735595Y-97466950D02*
X171640357Y-97514569D01*
X171640357Y-97514569D02*
X171354643Y-97514569D01*
X171354643Y-97514569D02*
X171259405Y-97466950D01*
X171259405Y-97466950D02*
X171211786Y-97419330D01*
X169164167Y-116516950D02*
X169307024Y-116564569D01*
X169307024Y-116564569D02*
X169545119Y-116564569D01*
X169545119Y-116564569D02*
X169640357Y-116516950D01*
X169640357Y-116516950D02*
X169687976Y-116469330D01*
X169687976Y-116469330D02*
X169735595Y-116374092D01*
X169735595Y-116374092D02*
X169735595Y-116278854D01*
X169735595Y-116278854D02*
X169687976Y-116183616D01*
X169687976Y-116183616D02*
X169640357Y-116135997D01*
X169640357Y-116135997D02*
X169545119Y-116088378D01*
X169545119Y-116088378D02*
X169354643Y-116040759D01*
X169354643Y-116040759D02*
X169259405Y-115993140D01*
X169259405Y-115993140D02*
X169211786Y-115945521D01*
X169211786Y-115945521D02*
X169164167Y-115850283D01*
X169164167Y-115850283D02*
X169164167Y-115755045D01*
X169164167Y-115755045D02*
X169211786Y-115659807D01*
X169211786Y-115659807D02*
X169259405Y-115612188D01*
X169259405Y-115612188D02*
X169354643Y-115564569D01*
X169354643Y-115564569D02*
X169592738Y-115564569D01*
X169592738Y-115564569D02*
X169735595Y-115612188D01*
X170068929Y-115564569D02*
X170307024Y-116564569D01*
X170307024Y-116564569D02*
X170497500Y-115850283D01*
X170497500Y-115850283D02*
X170687976Y-116564569D01*
X170687976Y-116564569D02*
X170926072Y-115564569D01*
X171354643Y-116564569D02*
X171545119Y-116564569D01*
X171545119Y-116564569D02*
X171640357Y-116516950D01*
X171640357Y-116516950D02*
X171687976Y-116469330D01*
X171687976Y-116469330D02*
X171783214Y-116326473D01*
X171783214Y-116326473D02*
X171830833Y-116135997D01*
X171830833Y-116135997D02*
X171830833Y-115755045D01*
X171830833Y-115755045D02*
X171783214Y-115659807D01*
X171783214Y-115659807D02*
X171735595Y-115612188D01*
X171735595Y-115612188D02*
X171640357Y-115564569D01*
X171640357Y-115564569D02*
X171449881Y-115564569D01*
X171449881Y-115564569D02*
X171354643Y-115612188D01*
X171354643Y-115612188D02*
X171307024Y-115659807D01*
X171307024Y-115659807D02*
X171259405Y-115755045D01*
X171259405Y-115755045D02*
X171259405Y-115993140D01*
X171259405Y-115993140D02*
X171307024Y-116088378D01*
X171307024Y-116088378D02*
X171354643Y-116135997D01*
X171354643Y-116135997D02*
X171449881Y-116183616D01*
X171449881Y-116183616D02*
X171640357Y-116183616D01*
X171640357Y-116183616D02*
X171735595Y-116135997D01*
X171735595Y-116135997D02*
X171783214Y-116088378D01*
X171783214Y-116088378D02*
X171830833Y-115993140D01*
D12*
X138717322Y-83209757D02*
X138574465Y-83138328D01*
X138574465Y-83138328D02*
X138360179Y-83138328D01*
X138360179Y-83138328D02*
X138145893Y-83209757D01*
X138145893Y-83209757D02*
X138003036Y-83352614D01*
X138003036Y-83352614D02*
X137931607Y-83495471D01*
X137931607Y-83495471D02*
X137860179Y-83781185D01*
X137860179Y-83781185D02*
X137860179Y-83995471D01*
X137860179Y-83995471D02*
X137931607Y-84281185D01*
X137931607Y-84281185D02*
X138003036Y-84424042D01*
X138003036Y-84424042D02*
X138145893Y-84566900D01*
X138145893Y-84566900D02*
X138360179Y-84638328D01*
X138360179Y-84638328D02*
X138503036Y-84638328D01*
X138503036Y-84638328D02*
X138717322Y-84566900D01*
X138717322Y-84566900D02*
X138788750Y-84495471D01*
X138788750Y-84495471D02*
X138788750Y-83995471D01*
X138788750Y-83995471D02*
X138503036Y-83995471D01*
X139645893Y-83138328D02*
X139645893Y-83495471D01*
X139288750Y-83352614D02*
X139645893Y-83495471D01*
X139645893Y-83495471D02*
X140003036Y-83352614D01*
X139431607Y-83781185D02*
X139645893Y-83495471D01*
X139645893Y-83495471D02*
X139860179Y-83781185D01*
X140788750Y-83138328D02*
X140788750Y-83495471D01*
X140431607Y-83352614D02*
X140788750Y-83495471D01*
X140788750Y-83495471D02*
X141145893Y-83352614D01*
X140574464Y-83781185D02*
X140788750Y-83495471D01*
X140788750Y-83495471D02*
X141003036Y-83781185D01*
X141931607Y-83138328D02*
X141931607Y-83495471D01*
X141574464Y-83352614D02*
X141931607Y-83495471D01*
X141931607Y-83495471D02*
X142288750Y-83352614D01*
X141717321Y-83781185D02*
X141931607Y-83495471D01*
X141931607Y-83495471D02*
X142145893Y-83781185D01*
D10*
X150114167Y-116516950D02*
X150257024Y-116564569D01*
X150257024Y-116564569D02*
X150495119Y-116564569D01*
X150495119Y-116564569D02*
X150590357Y-116516950D01*
X150590357Y-116516950D02*
X150637976Y-116469330D01*
X150637976Y-116469330D02*
X150685595Y-116374092D01*
X150685595Y-116374092D02*
X150685595Y-116278854D01*
X150685595Y-116278854D02*
X150637976Y-116183616D01*
X150637976Y-116183616D02*
X150590357Y-116135997D01*
X150590357Y-116135997D02*
X150495119Y-116088378D01*
X150495119Y-116088378D02*
X150304643Y-116040759D01*
X150304643Y-116040759D02*
X150209405Y-115993140D01*
X150209405Y-115993140D02*
X150161786Y-115945521D01*
X150161786Y-115945521D02*
X150114167Y-115850283D01*
X150114167Y-115850283D02*
X150114167Y-115755045D01*
X150114167Y-115755045D02*
X150161786Y-115659807D01*
X150161786Y-115659807D02*
X150209405Y-115612188D01*
X150209405Y-115612188D02*
X150304643Y-115564569D01*
X150304643Y-115564569D02*
X150542738Y-115564569D01*
X150542738Y-115564569D02*
X150685595Y-115612188D01*
X151018929Y-115564569D02*
X151257024Y-116564569D01*
X151257024Y-116564569D02*
X151447500Y-115850283D01*
X151447500Y-115850283D02*
X151637976Y-116564569D01*
X151637976Y-116564569D02*
X151876072Y-115564569D01*
X152399881Y-115993140D02*
X152304643Y-115945521D01*
X152304643Y-115945521D02*
X152257024Y-115897902D01*
X152257024Y-115897902D02*
X152209405Y-115802664D01*
X152209405Y-115802664D02*
X152209405Y-115755045D01*
X152209405Y-115755045D02*
X152257024Y-115659807D01*
X152257024Y-115659807D02*
X152304643Y-115612188D01*
X152304643Y-115612188D02*
X152399881Y-115564569D01*
X152399881Y-115564569D02*
X152590357Y-115564569D01*
X152590357Y-115564569D02*
X152685595Y-115612188D01*
X152685595Y-115612188D02*
X152733214Y-115659807D01*
X152733214Y-115659807D02*
X152780833Y-115755045D01*
X152780833Y-115755045D02*
X152780833Y-115802664D01*
X152780833Y-115802664D02*
X152733214Y-115897902D01*
X152733214Y-115897902D02*
X152685595Y-115945521D01*
X152685595Y-115945521D02*
X152590357Y-115993140D01*
X152590357Y-115993140D02*
X152399881Y-115993140D01*
X152399881Y-115993140D02*
X152304643Y-116040759D01*
X152304643Y-116040759D02*
X152257024Y-116088378D01*
X152257024Y-116088378D02*
X152209405Y-116183616D01*
X152209405Y-116183616D02*
X152209405Y-116374092D01*
X152209405Y-116374092D02*
X152257024Y-116469330D01*
X152257024Y-116469330D02*
X152304643Y-116516950D01*
X152304643Y-116516950D02*
X152399881Y-116564569D01*
X152399881Y-116564569D02*
X152590357Y-116564569D01*
X152590357Y-116564569D02*
X152685595Y-116516950D01*
X152685595Y-116516950D02*
X152733214Y-116469330D01*
X152733214Y-116469330D02*
X152780833Y-116374092D01*
X152780833Y-116374092D02*
X152780833Y-116183616D01*
X152780833Y-116183616D02*
X152733214Y-116088378D01*
X152733214Y-116088378D02*
X152685595Y-116040759D01*
X152685595Y-116040759D02*
X152590357Y-115993140D01*
X131064167Y-116516950D02*
X131207024Y-116564569D01*
X131207024Y-116564569D02*
X131445119Y-116564569D01*
X131445119Y-116564569D02*
X131540357Y-116516950D01*
X131540357Y-116516950D02*
X131587976Y-116469330D01*
X131587976Y-116469330D02*
X131635595Y-116374092D01*
X131635595Y-116374092D02*
X131635595Y-116278854D01*
X131635595Y-116278854D02*
X131587976Y-116183616D01*
X131587976Y-116183616D02*
X131540357Y-116135997D01*
X131540357Y-116135997D02*
X131445119Y-116088378D01*
X131445119Y-116088378D02*
X131254643Y-116040759D01*
X131254643Y-116040759D02*
X131159405Y-115993140D01*
X131159405Y-115993140D02*
X131111786Y-115945521D01*
X131111786Y-115945521D02*
X131064167Y-115850283D01*
X131064167Y-115850283D02*
X131064167Y-115755045D01*
X131064167Y-115755045D02*
X131111786Y-115659807D01*
X131111786Y-115659807D02*
X131159405Y-115612188D01*
X131159405Y-115612188D02*
X131254643Y-115564569D01*
X131254643Y-115564569D02*
X131492738Y-115564569D01*
X131492738Y-115564569D02*
X131635595Y-115612188D01*
X131968929Y-115564569D02*
X132207024Y-116564569D01*
X132207024Y-116564569D02*
X132397500Y-115850283D01*
X132397500Y-115850283D02*
X132587976Y-116564569D01*
X132587976Y-116564569D02*
X132826072Y-115564569D01*
X133111786Y-115564569D02*
X133778452Y-115564569D01*
X133778452Y-115564569D02*
X133349881Y-116564569D01*
X150114167Y-97466950D02*
X150257024Y-97514569D01*
X150257024Y-97514569D02*
X150495119Y-97514569D01*
X150495119Y-97514569D02*
X150590357Y-97466950D01*
X150590357Y-97466950D02*
X150637976Y-97419330D01*
X150637976Y-97419330D02*
X150685595Y-97324092D01*
X150685595Y-97324092D02*
X150685595Y-97228854D01*
X150685595Y-97228854D02*
X150637976Y-97133616D01*
X150637976Y-97133616D02*
X150590357Y-97085997D01*
X150590357Y-97085997D02*
X150495119Y-97038378D01*
X150495119Y-97038378D02*
X150304643Y-96990759D01*
X150304643Y-96990759D02*
X150209405Y-96943140D01*
X150209405Y-96943140D02*
X150161786Y-96895521D01*
X150161786Y-96895521D02*
X150114167Y-96800283D01*
X150114167Y-96800283D02*
X150114167Y-96705045D01*
X150114167Y-96705045D02*
X150161786Y-96609807D01*
X150161786Y-96609807D02*
X150209405Y-96562188D01*
X150209405Y-96562188D02*
X150304643Y-96514569D01*
X150304643Y-96514569D02*
X150542738Y-96514569D01*
X150542738Y-96514569D02*
X150685595Y-96562188D01*
X151018929Y-96514569D02*
X151257024Y-97514569D01*
X151257024Y-97514569D02*
X151447500Y-96800283D01*
X151447500Y-96800283D02*
X151637976Y-97514569D01*
X151637976Y-97514569D02*
X151876072Y-96514569D01*
X152209405Y-96609807D02*
X152257024Y-96562188D01*
X152257024Y-96562188D02*
X152352262Y-96514569D01*
X152352262Y-96514569D02*
X152590357Y-96514569D01*
X152590357Y-96514569D02*
X152685595Y-96562188D01*
X152685595Y-96562188D02*
X152733214Y-96609807D01*
X152733214Y-96609807D02*
X152780833Y-96705045D01*
X152780833Y-96705045D02*
X152780833Y-96800283D01*
X152780833Y-96800283D02*
X152733214Y-96943140D01*
X152733214Y-96943140D02*
X152161786Y-97514569D01*
X152161786Y-97514569D02*
X152780833Y-97514569D01*
X131064167Y-97466950D02*
X131207024Y-97514569D01*
X131207024Y-97514569D02*
X131445119Y-97514569D01*
X131445119Y-97514569D02*
X131540357Y-97466950D01*
X131540357Y-97466950D02*
X131587976Y-97419330D01*
X131587976Y-97419330D02*
X131635595Y-97324092D01*
X131635595Y-97324092D02*
X131635595Y-97228854D01*
X131635595Y-97228854D02*
X131587976Y-97133616D01*
X131587976Y-97133616D02*
X131540357Y-97085997D01*
X131540357Y-97085997D02*
X131445119Y-97038378D01*
X131445119Y-97038378D02*
X131254643Y-96990759D01*
X131254643Y-96990759D02*
X131159405Y-96943140D01*
X131159405Y-96943140D02*
X131111786Y-96895521D01*
X131111786Y-96895521D02*
X131064167Y-96800283D01*
X131064167Y-96800283D02*
X131064167Y-96705045D01*
X131064167Y-96705045D02*
X131111786Y-96609807D01*
X131111786Y-96609807D02*
X131159405Y-96562188D01*
X131159405Y-96562188D02*
X131254643Y-96514569D01*
X131254643Y-96514569D02*
X131492738Y-96514569D01*
X131492738Y-96514569D02*
X131635595Y-96562188D01*
X131968929Y-96514569D02*
X132207024Y-97514569D01*
X132207024Y-97514569D02*
X132397500Y-96800283D01*
X132397500Y-96800283D02*
X132587976Y-97514569D01*
X132587976Y-97514569D02*
X132826072Y-96514569D01*
X133730833Y-97514569D02*
X133159405Y-97514569D01*
X133445119Y-97514569D02*
X133445119Y-96514569D01*
X133445119Y-96514569D02*
X133349881Y-96657426D01*
X133349881Y-96657426D02*
X133254643Y-96752664D01*
X133254643Y-96752664D02*
X133159405Y-96800283D01*
D13*
%TO.C,SW3*%
X163512500Y-97948750D02*
X177482500Y-97948750D01*
X163512500Y-111918750D02*
X163512500Y-97948750D01*
X177482500Y-97948750D02*
X177482500Y-111918750D01*
X177482500Y-111918750D02*
X163512500Y-111918750D01*
%TO.C,SW9*%
X163512500Y-116998750D02*
X177482500Y-116998750D01*
X163512500Y-130968750D02*
X163512500Y-116998750D01*
X177482500Y-116998750D02*
X177482500Y-130968750D01*
X177482500Y-130968750D02*
X163512500Y-130968750D01*
D14*
%TO.C,G\u002A\u002A\u002A*%
G36*
X138440736Y-82509172D02*
G01*
X138419710Y-82530198D01*
X138398683Y-82509172D01*
X138419710Y-82488145D01*
X138440736Y-82509172D01*
G37*
G36*
X142393716Y-88761076D02*
G01*
X142545373Y-88774905D01*
X142672454Y-88800502D01*
X142757983Y-88832505D01*
X142784986Y-88865549D01*
X142771710Y-88880497D01*
X142696749Y-88901749D01*
X142572987Y-88914007D01*
X142426835Y-88917448D01*
X142284706Y-88912247D01*
X142173014Y-88898577D01*
X142118170Y-88876614D01*
X142117880Y-88876167D01*
X142117114Y-88818167D01*
X142188598Y-88778158D01*
X142321566Y-88760631D01*
X142393716Y-88761076D01*
G37*
G36*
X141144464Y-81967124D02*
G01*
X141237832Y-82049157D01*
X141289898Y-82198070D01*
X141299719Y-82330447D01*
X141289492Y-82478613D01*
X141264188Y-82606720D01*
X141247153Y-82651876D01*
X141138710Y-82776431D01*
X140974787Y-82861113D01*
X140776991Y-82899674D01*
X140566934Y-82885870D01*
X140497698Y-82868484D01*
X140292393Y-82769829D01*
X140113302Y-82602117D01*
X140033603Y-82495024D01*
X139954120Y-82359752D01*
X139932135Y-82271378D01*
X139941848Y-82240898D01*
X140010555Y-82187815D01*
X140141032Y-82130375D01*
X140311715Y-82075599D01*
X140501041Y-82030505D01*
X140669544Y-82004003D01*
X140822951Y-81985368D01*
X140959205Y-81966209D01*
X141013742Y-81957123D01*
X141144464Y-81967124D01*
G37*
G36*
X140944430Y-74773630D02*
G01*
X141237212Y-74782122D01*
X141481608Y-74799711D01*
X141695442Y-74829204D01*
X141896539Y-74873413D01*
X142102722Y-74935147D01*
X142331817Y-75017215D01*
X142461609Y-75067176D01*
X142991378Y-75317651D01*
X143470192Y-75633001D01*
X143893806Y-76008157D01*
X144257978Y-76438052D01*
X144558462Y-76917617D01*
X144791014Y-77441785D01*
X144951392Y-78005487D01*
X144960860Y-78051556D01*
X144988032Y-78178340D01*
X145027805Y-78353095D01*
X145074091Y-78550252D01*
X145120806Y-78744243D01*
X145161863Y-78909498D01*
X145191176Y-79020449D01*
X145192956Y-79026643D01*
X145250207Y-79106050D01*
X145344792Y-79162227D01*
X145427273Y-79210911D01*
X145435490Y-79260047D01*
X145370939Y-79289878D01*
X145334943Y-79292119D01*
X145281043Y-79307381D01*
X145257494Y-79367630D01*
X145253319Y-79457849D01*
X145243544Y-79569825D01*
X145219264Y-79641599D01*
X145211266Y-79649569D01*
X145193170Y-79700609D01*
X145179087Y-79817333D01*
X145170745Y-79981347D01*
X145169213Y-80097196D01*
X145169213Y-80518833D01*
X145313548Y-80646617D01*
X145425083Y-80737086D01*
X145528955Y-80808353D01*
X145554981Y-80822810D01*
X145628717Y-80880835D01*
X145665935Y-80949020D01*
X145658217Y-81001928D01*
X145619002Y-81016291D01*
X145540542Y-81046038D01*
X145511311Y-81072534D01*
X145493108Y-81128929D01*
X145540585Y-81196390D01*
X145558728Y-81213292D01*
X145649421Y-81278830D01*
X145780098Y-81355251D01*
X145924837Y-81429493D01*
X146057712Y-81488492D01*
X146152801Y-81519185D01*
X146169219Y-81520927D01*
X146213240Y-81541261D01*
X146195496Y-81592055D01*
X146124780Y-81657995D01*
X146070453Y-81692922D01*
X145923838Y-81742700D01*
X145753127Y-81742119D01*
X145615420Y-81737958D01*
X145537493Y-81759683D01*
X145529867Y-81768061D01*
X145469360Y-81804320D01*
X145395098Y-81815298D01*
X145317705Y-81829720D01*
X145300504Y-81887422D01*
X145302960Y-81909917D01*
X145349545Y-81999911D01*
X145411018Y-82046048D01*
X145483378Y-82089263D01*
X145505637Y-82119641D01*
X145539364Y-82148975D01*
X145562199Y-82151722D01*
X145633467Y-82180403D01*
X145701699Y-82246430D01*
X145741389Y-82319776D01*
X145738566Y-82359337D01*
X145679199Y-82393979D01*
X145608287Y-82404040D01*
X145530421Y-82416652D01*
X145505637Y-82440057D01*
X145469260Y-82467562D01*
X145389991Y-82480334D01*
X145273103Y-82489523D01*
X145127610Y-82507001D01*
X145091974Y-82512160D01*
X144950450Y-82520333D01*
X144866605Y-82496346D01*
X144862786Y-82492910D01*
X144795518Y-82465295D01*
X144678110Y-82448480D01*
X144611349Y-82446092D01*
X144422705Y-82461721D01*
X144300518Y-82505306D01*
X144249312Y-82571899D01*
X144273609Y-82656550D01*
X144349180Y-82732950D01*
X144436997Y-82819057D01*
X144450052Y-82881674D01*
X144386807Y-82921477D01*
X144245723Y-82939142D01*
X144025264Y-82935345D01*
X143906807Y-82927371D01*
X143529147Y-82897827D01*
X143529147Y-83029410D01*
X143542186Y-83120286D01*
X143573790Y-83160851D01*
X143575973Y-83160993D01*
X143604800Y-83198019D01*
X143601850Y-83297665D01*
X143603945Y-83433401D01*
X143637891Y-83573019D01*
X143639682Y-83577467D01*
X143679074Y-83689844D01*
X143672613Y-83732630D01*
X143616096Y-83709301D01*
X143544941Y-83655847D01*
X143412282Y-83549617D01*
X143333310Y-83489109D01*
X143296408Y-83467043D01*
X143289957Y-83476141D01*
X143299337Y-83501982D01*
X143344122Y-83557587D01*
X143433850Y-83638297D01*
X143549764Y-83730359D01*
X143673107Y-83820022D01*
X143785123Y-83893532D01*
X143867056Y-83937137D01*
X143898380Y-83941208D01*
X143893830Y-83896842D01*
X143854991Y-83857306D01*
X143795946Y-83802886D01*
X143781465Y-83775837D01*
X143814216Y-83763007D01*
X143889799Y-83775222D01*
X143974202Y-83803328D01*
X144033418Y-83838172D01*
X144039299Y-83845226D01*
X144091365Y-83858461D01*
X144186069Y-83843983D01*
X144290458Y-83810957D01*
X144371580Y-83768546D01*
X144393000Y-83746875D01*
X144404436Y-83689955D01*
X144414928Y-83570107D01*
X144420564Y-83455364D01*
X144706630Y-83455364D01*
X144722017Y-83489978D01*
X144734666Y-83483399D01*
X144739698Y-83433492D01*
X144734666Y-83427329D01*
X144709665Y-83433101D01*
X144706630Y-83455364D01*
X144420564Y-83455364D01*
X144422865Y-83408508D01*
X144425284Y-83322750D01*
X144433602Y-82937403D01*
X144614340Y-82871504D01*
X144712047Y-82838589D01*
X144779730Y-82832928D01*
X144830065Y-82866236D01*
X144875727Y-82950226D01*
X144929391Y-83096611D01*
X144961732Y-83192533D01*
X145021860Y-83348535D01*
X145079757Y-83431745D01*
X145148657Y-83452044D01*
X145241792Y-83419313D01*
X145255704Y-83412035D01*
X145346772Y-83392919D01*
X145461116Y-83433061D01*
X145573930Y-83478615D01*
X145669279Y-83497417D01*
X145762670Y-83515306D01*
X145789939Y-83561585D01*
X145759234Y-83625174D01*
X145678701Y-83694992D01*
X145556487Y-83759958D01*
X145448985Y-83797034D01*
X145309720Y-83856276D01*
X145187977Y-83941233D01*
X145169213Y-83959917D01*
X145032738Y-84058887D01*
X144851630Y-84124615D01*
X144639179Y-84174658D01*
X144989350Y-84519398D01*
X145221158Y-84762972D01*
X145388856Y-84979332D01*
X145500604Y-85184285D01*
X145564563Y-85393638D01*
X145588894Y-85623197D01*
X145589743Y-85682354D01*
X145587948Y-85846770D01*
X145576682Y-85953459D01*
X145547126Y-86028795D01*
X145490459Y-86099155D01*
X145430271Y-86159247D01*
X145331894Y-86247186D01*
X145252755Y-86303648D01*
X145223511Y-86314967D01*
X145167587Y-86339318D01*
X145162204Y-86348052D01*
X145119631Y-86382471D01*
X145022907Y-86438857D01*
X144912704Y-86495238D01*
X144709941Y-86574955D01*
X144509775Y-86606982D01*
X144421063Y-86609338D01*
X144281905Y-86603355D01*
X144179451Y-86587813D01*
X144140626Y-86570053D01*
X144086847Y-86549555D01*
X143987872Y-86551788D01*
X143975279Y-86553662D01*
X143866159Y-86557057D01*
X143805590Y-86530239D01*
X143805356Y-86529866D01*
X143744939Y-86493656D01*
X143673850Y-86483179D01*
X143596070Y-86465346D01*
X143571200Y-86432114D01*
X143550168Y-86412293D01*
X143504437Y-86447813D01*
X143460741Y-86520520D01*
X143483410Y-86604010D01*
X143538777Y-86713147D01*
X143569265Y-86773880D01*
X143598184Y-86861922D01*
X143626431Y-86994950D01*
X143637887Y-87069195D01*
X143660691Y-87195728D01*
X143687779Y-87283901D01*
X143702902Y-87306637D01*
X143731097Y-87361682D01*
X143739412Y-87431852D01*
X143753590Y-87509696D01*
X143779930Y-87534503D01*
X143803050Y-87572190D01*
X143816396Y-87668075D01*
X143817827Y-87734255D01*
X143809977Y-87850628D01*
X143780545Y-87940418D01*
X143715216Y-88032614D01*
X143619610Y-88135725D01*
X143424014Y-88337444D01*
X143424014Y-88866730D01*
X143422986Y-89087753D01*
X143418451Y-89239570D01*
X143408237Y-89337070D01*
X143390170Y-89395143D01*
X143362078Y-89428678D01*
X143339908Y-89442991D01*
X143238796Y-89518622D01*
X143198062Y-89615239D01*
X143193367Y-89687236D01*
X143178761Y-89780394D01*
X143150670Y-89826390D01*
X143123197Y-89881826D01*
X143109107Y-89985435D01*
X143108617Y-90009700D01*
X143098213Y-90123842D01*
X143072613Y-90201574D01*
X143066968Y-90208669D01*
X143038007Y-90272336D01*
X143011098Y-90387535D01*
X143000548Y-90458884D01*
X142976772Y-90602101D01*
X142945233Y-90723582D01*
X142930832Y-90760439D01*
X142909669Y-90859580D01*
X142905892Y-91009616D01*
X142917122Y-91179688D01*
X142940980Y-91338939D01*
X142975085Y-91456512D01*
X142986149Y-91477766D01*
X143010909Y-91548055D01*
X142994232Y-91637271D01*
X142958598Y-91721879D01*
X142905639Y-91828038D01*
X142864478Y-91897449D01*
X142855423Y-91908013D01*
X142822614Y-91957438D01*
X142791190Y-92033151D01*
X142776720Y-92094254D01*
X142779992Y-92106160D01*
X142760266Y-92138430D01*
X142695825Y-92214396D01*
X142601733Y-92316425D01*
X142459720Y-92478152D01*
X142369245Y-92618916D01*
X142314448Y-92768063D01*
X142288319Y-92896258D01*
X142252306Y-93010592D01*
X142189581Y-93125170D01*
X142115837Y-93218969D01*
X142046764Y-93270965D01*
X142008804Y-93270758D01*
X141975213Y-93279759D01*
X141973187Y-93293280D01*
X141931733Y-93314195D01*
X141809205Y-93327998D01*
X141608350Y-93334468D01*
X141458038Y-93334778D01*
X140942889Y-93331742D01*
X140827243Y-93192334D01*
X140755060Y-93090388D01*
X140751671Y-93083168D01*
X141005968Y-93083168D01*
X141015331Y-93177734D01*
X141034003Y-93225673D01*
X141094224Y-93243046D01*
X141214099Y-93250840D01*
X141369831Y-93249951D01*
X141537623Y-93241277D01*
X141693678Y-93225714D01*
X141814200Y-93204159D01*
X141844213Y-93195138D01*
X141940260Y-93153076D01*
X142002291Y-93096973D01*
X142049950Y-93002294D01*
X142088424Y-92890143D01*
X142115330Y-92779769D01*
X142104384Y-92714226D01*
X142046433Y-92691000D01*
X141932326Y-92707576D01*
X141752911Y-92761438D01*
X141693405Y-92781594D01*
X141508230Y-92842554D01*
X141334067Y-92895303D01*
X141199360Y-92931385D01*
X141163254Y-92939191D01*
X141058729Y-92967394D01*
X141014309Y-93013099D01*
X141005968Y-93083168D01*
X140751671Y-93083168D01*
X140714687Y-93004388D01*
X140711597Y-92985106D01*
X140679954Y-92926367D01*
X140648518Y-92917285D01*
X140592555Y-92894577D01*
X140585438Y-92875232D01*
X140551946Y-92836696D01*
X140529689Y-92833179D01*
X140464828Y-92805770D01*
X140388900Y-92740956D01*
X140326351Y-92664854D01*
X140301629Y-92603582D01*
X140304701Y-92592822D01*
X140288555Y-92548467D01*
X140219896Y-92485984D01*
X140202658Y-92474063D01*
X140116551Y-92399618D01*
X140096611Y-92323663D01*
X140101314Y-92297003D01*
X140106442Y-92224348D01*
X140089453Y-92202384D01*
X140052989Y-92167185D01*
X140006961Y-92080075D01*
X139996696Y-92055198D01*
X139951153Y-91959965D01*
X139911365Y-91910137D01*
X139904741Y-91908013D01*
X139878793Y-91872056D01*
X139870538Y-91805362D01*
X139853237Y-91715056D01*
X139823850Y-91673857D01*
X139796775Y-91613878D01*
X139799873Y-91505062D01*
X139800054Y-91503934D01*
X139805128Y-91402121D01*
X139787053Y-91341290D01*
X139783663Y-91338586D01*
X139758574Y-91284634D01*
X139745108Y-91180793D01*
X139744379Y-91148578D01*
X139734921Y-91044163D01*
X139711336Y-90986703D01*
X139702326Y-90982847D01*
X139679926Y-90944543D01*
X139664739Y-90844479D01*
X139660273Y-90730530D01*
X139654792Y-90597453D01*
X139640548Y-90506025D01*
X139624077Y-90478212D01*
X139599211Y-90440416D01*
X139574606Y-90343509D01*
X139566982Y-90293140D01*
X139757066Y-90293140D01*
X139766044Y-90479184D01*
X139787070Y-90725200D01*
X139807987Y-90938000D01*
X139829593Y-91121412D01*
X139849656Y-91258733D01*
X139865943Y-91333259D01*
X139869290Y-91340298D01*
X139894402Y-91400183D01*
X139930479Y-91516858D01*
X139969732Y-91665123D01*
X139969921Y-91665892D01*
X140078417Y-92019400D01*
X140216622Y-92327392D01*
X140376206Y-92571451D01*
X140383440Y-92580255D01*
X140522359Y-92747557D01*
X140858783Y-92747804D01*
X141016158Y-92744273D01*
X141152547Y-92729805D01*
X141292476Y-92698975D01*
X141460475Y-92646360D01*
X141681071Y-92566535D01*
X141684809Y-92565139D01*
X141979264Y-92449188D01*
X142204954Y-92344430D01*
X142374826Y-92242118D01*
X142501823Y-92133506D01*
X142598889Y-92009845D01*
X142656547Y-91908483D01*
X142718688Y-91774797D01*
X142760667Y-91663196D01*
X142772193Y-91609855D01*
X142736779Y-91526243D01*
X142643336Y-91424695D01*
X142511065Y-91320586D01*
X142359166Y-91229289D01*
X142225463Y-91172072D01*
X141949954Y-91117464D01*
X141666606Y-91126316D01*
X141403283Y-91196277D01*
X141292201Y-91250862D01*
X141146910Y-91320696D01*
X141028240Y-91351450D01*
X140947017Y-91347497D01*
X140914068Y-91313207D01*
X140940224Y-91252952D01*
X141036310Y-91171103D01*
X141058534Y-91156526D01*
X141182008Y-91073469D01*
X141295022Y-90990645D01*
X141300339Y-90986467D01*
X141429313Y-90923536D01*
X141604932Y-90890409D01*
X141615736Y-90889635D01*
X141826001Y-90875914D01*
X141833391Y-90435258D01*
X141836750Y-90247164D01*
X141839967Y-90088226D01*
X141842611Y-89978708D01*
X141843904Y-89942036D01*
X141874307Y-89895081D01*
X141933319Y-89898540D01*
X141985772Y-89947996D01*
X141991470Y-89960565D01*
X142006954Y-90031296D01*
X142026478Y-90163916D01*
X142047038Y-90336503D01*
X142058837Y-90452374D01*
X142078740Y-90632628D01*
X142100169Y-90780407D01*
X142120030Y-90876351D01*
X142130674Y-90901782D01*
X142191519Y-90935705D01*
X142297622Y-90978315D01*
X142423379Y-91021345D01*
X142543188Y-91056528D01*
X142631444Y-91075598D01*
X142662301Y-91073429D01*
X142678698Y-91022844D01*
X142709100Y-90910198D01*
X142748268Y-90755304D01*
X142769683Y-90667450D01*
X142814938Y-90489294D01*
X142858548Y-90334315D01*
X142893548Y-90226659D01*
X142904363Y-90200630D01*
X142933757Y-90086668D01*
X142933639Y-90011392D01*
X142923839Y-89967911D01*
X142899200Y-89938042D01*
X142845009Y-89918000D01*
X142746552Y-89904002D01*
X142589117Y-89892263D01*
X142435769Y-89883355D01*
X142183144Y-89867194D01*
X142001888Y-89849142D01*
X141879282Y-89825589D01*
X141802609Y-89792923D01*
X141759149Y-89747536D01*
X141736182Y-89685815D01*
X141735916Y-89684693D01*
X141682810Y-89561240D01*
X141597334Y-89455107D01*
X141502893Y-89392172D01*
X141464725Y-89384834D01*
X141394088Y-89362189D01*
X141376143Y-89338902D01*
X141327762Y-89314292D01*
X141211756Y-89296819D01*
X141046728Y-89288988D01*
X140814788Y-89300586D01*
X140615707Y-89348284D01*
X140427761Y-89441716D01*
X140229224Y-89590517D01*
X140095495Y-89710839D01*
X139958158Y-89841891D01*
X139861209Y-89947353D01*
X139799085Y-90045518D01*
X139766225Y-90154683D01*
X139757066Y-90293140D01*
X139566982Y-90293140D01*
X139562296Y-90262179D01*
X139534041Y-90098934D01*
X139485092Y-89991150D01*
X139400002Y-89927721D01*
X139263321Y-89897538D01*
X139059602Y-89889491D01*
X139043987Y-89889470D01*
X138872204Y-89894201D01*
X138750840Y-89907183D01*
X138695031Y-89926603D01*
X138693054Y-89931523D01*
X138657066Y-89963135D01*
X138587922Y-89973576D01*
X138508891Y-89987971D01*
X138482789Y-90015629D01*
X138445203Y-90040708D01*
X138350105Y-90055752D01*
X138293551Y-90057682D01*
X138180693Y-90049329D01*
X138112996Y-90028196D01*
X138104312Y-90015629D01*
X138069091Y-89981462D01*
X138020206Y-89973576D01*
X137951889Y-89954938D01*
X137936100Y-89929041D01*
X137911812Y-89902077D01*
X137899668Y-89907023D01*
X137848135Y-89896434D01*
X137788018Y-89846425D01*
X137730194Y-89798923D01*
X137957127Y-89798923D01*
X138006838Y-89833033D01*
X138079731Y-89854802D01*
X138187809Y-89864580D01*
X138343078Y-89862716D01*
X138557540Y-89849560D01*
X138843201Y-89825460D01*
X138849571Y-89824882D01*
X139018329Y-89804756D01*
X139129523Y-89781309D01*
X139171135Y-89757258D01*
X139169977Y-89752492D01*
X139114446Y-89733788D01*
X138990039Y-89731437D01*
X138845248Y-89742120D01*
X138638139Y-89757286D01*
X138404092Y-89765578D01*
X138230471Y-89765679D01*
X138063502Y-89766539D01*
X137970887Y-89777848D01*
X137957127Y-89798923D01*
X137730194Y-89798923D01*
X137711573Y-89783626D01*
X137656238Y-89763311D01*
X137619033Y-89727158D01*
X137601954Y-89637165D01*
X137603138Y-89583225D01*
X137778820Y-89583225D01*
X137788605Y-89608798D01*
X137853151Y-89604456D01*
X137964589Y-89575657D01*
X138107118Y-89536802D01*
X138232820Y-89506566D01*
X138272524Y-89498639D01*
X138290580Y-89492724D01*
X138537365Y-89492724D01*
X138559909Y-89510265D01*
X138647395Y-89496992D01*
X138653641Y-89495747D01*
X138752774Y-89472079D01*
X138808174Y-89451648D01*
X138809844Y-89450273D01*
X138808499Y-89404491D01*
X138799916Y-89387632D01*
X138732711Y-89344981D01*
X138644582Y-89358493D01*
X138570456Y-89421449D01*
X138563567Y-89433105D01*
X138537365Y-89492724D01*
X138290580Y-89492724D01*
X138306893Y-89487380D01*
X138261821Y-89480774D01*
X138209445Y-89479643D01*
X138021103Y-89489663D01*
X137876236Y-89518853D01*
X137791674Y-89563163D01*
X137778820Y-89583225D01*
X137603138Y-89583225D01*
X137604503Y-89521031D01*
X137626187Y-89406454D01*
X137664094Y-89324230D01*
X137667266Y-89318315D01*
X137826469Y-89318315D01*
X137828234Y-89373618D01*
X137870737Y-89380786D01*
X137917692Y-89338545D01*
X137975533Y-89311751D01*
X138058827Y-89314760D01*
X138180457Y-89317945D01*
X138251839Y-89276600D01*
X138254851Y-89242575D01*
X139211348Y-89242575D01*
X139217827Y-89257236D01*
X139265539Y-89265281D01*
X139352670Y-89242135D01*
X139447182Y-89200968D01*
X139517038Y-89154951D01*
X139534114Y-89127209D01*
X139507000Y-89077257D01*
X139438346Y-89084964D01*
X139364895Y-89133389D01*
X139284780Y-89192881D01*
X139230826Y-89216622D01*
X139211348Y-89242575D01*
X138254851Y-89242575D01*
X138258658Y-89199571D01*
X138256247Y-89192808D01*
X138221462Y-89144385D01*
X138178629Y-89167537D01*
X138104689Y-89201811D01*
X137994127Y-89216608D01*
X137990769Y-89216622D01*
X137896809Y-89221295D01*
X137852506Y-89232698D01*
X137851994Y-89234209D01*
X137838912Y-89283642D01*
X137826469Y-89318315D01*
X137667266Y-89318315D01*
X137713065Y-89232900D01*
X137725836Y-89174916D01*
X137737132Y-89116108D01*
X138619562Y-89116108D01*
X138623885Y-89159951D01*
X138682541Y-89187634D01*
X138750118Y-89206307D01*
X138766647Y-89211744D01*
X138775304Y-89180943D01*
X138777160Y-89136453D01*
X138756665Y-89077769D01*
X138693054Y-89078279D01*
X138619562Y-89116108D01*
X137737132Y-89116108D01*
X137741763Y-89091997D01*
X137759310Y-89046191D01*
X139037750Y-89046191D01*
X139045301Y-89088293D01*
X139101044Y-89085968D01*
X139190852Y-89034534D01*
X139223534Y-89007769D01*
X139271664Y-88969338D01*
X139699854Y-88969338D01*
X139720887Y-89051892D01*
X139730361Y-89062428D01*
X139756830Y-89083189D01*
X139788907Y-89080038D01*
X139844493Y-89043724D01*
X139941491Y-88964996D01*
X139978174Y-88934373D01*
X140089810Y-88824692D01*
X140152860Y-88728567D01*
X140162148Y-88658826D01*
X140112496Y-88628300D01*
X140101829Y-88627881D01*
X140045859Y-88650135D01*
X140038749Y-88669079D01*
X140004556Y-88711348D01*
X139918264Y-88770045D01*
X139870538Y-88796092D01*
X139752044Y-88879688D01*
X139699854Y-88969338D01*
X139271664Y-88969338D01*
X139319498Y-88931143D01*
X139393279Y-88885640D01*
X139411900Y-88880198D01*
X139436391Y-88854704D01*
X139430534Y-88840657D01*
X139376298Y-88823179D01*
X139282834Y-88844912D01*
X139178771Y-88895378D01*
X139092741Y-88964102D01*
X139092521Y-88964345D01*
X139037750Y-89046191D01*
X137759310Y-89046191D01*
X137779572Y-88993298D01*
X137824305Y-88911849D01*
X137859166Y-88880527D01*
X137885455Y-88843819D01*
X137911885Y-88754751D01*
X137914182Y-88743526D01*
X137946053Y-88645403D01*
X138738427Y-88645403D01*
X138746159Y-88699946D01*
X138760514Y-88700597D01*
X138766896Y-88664819D01*
X139589189Y-88664819D01*
X139591423Y-88733140D01*
X139616036Y-88775641D01*
X139653678Y-88769736D01*
X139724651Y-88709718D01*
X139745621Y-88689770D01*
X139823967Y-88607100D01*
X139867425Y-88546464D01*
X139870538Y-88535907D01*
X139840628Y-88503158D01*
X139767020Y-88515141D01*
X139673889Y-88566923D01*
X139657919Y-88579278D01*
X139589189Y-88664819D01*
X138766896Y-88664819D01*
X138770553Y-88644314D01*
X138763834Y-88619996D01*
X138745161Y-88604067D01*
X138738427Y-88645403D01*
X137946053Y-88645403D01*
X137973848Y-88559828D01*
X138146365Y-88559828D01*
X138160956Y-88597396D01*
X138218840Y-88591807D01*
X138266947Y-88575060D01*
X138347007Y-88533008D01*
X138376822Y-88473686D01*
X139968661Y-88473686D01*
X139974434Y-88498687D01*
X139996696Y-88501722D01*
X140031311Y-88486335D01*
X140024732Y-88473686D01*
X139974825Y-88468653D01*
X139968661Y-88473686D01*
X138376822Y-88473686D01*
X138379532Y-88468293D01*
X138380587Y-88440368D01*
X140357834Y-88440368D01*
X140361947Y-88459669D01*
X140382279Y-88540452D01*
X140391602Y-88570773D01*
X140431716Y-88567924D01*
X140529349Y-88554111D01*
X140606465Y-88541740D01*
X140936407Y-88505579D01*
X141203365Y-88518862D01*
X141413217Y-88582748D01*
X141571843Y-88698395D01*
X141606714Y-88738722D01*
X141680300Y-88815416D01*
X141725834Y-88834994D01*
X141730057Y-88798993D01*
X141693924Y-88730175D01*
X141983148Y-88730175D01*
X141990587Y-88771803D01*
X142022795Y-88861760D01*
X142035007Y-88891724D01*
X142097931Y-89042323D01*
X142367738Y-89022097D01*
X142698223Y-89037041D01*
X143011991Y-89128572D01*
X143174857Y-89212659D01*
X143262366Y-89249779D01*
X143315798Y-89244924D01*
X143316892Y-89204538D01*
X143290824Y-89171744D01*
X143232486Y-89130281D01*
X143130499Y-89070690D01*
X143086342Y-89047025D01*
X142919379Y-88959826D01*
X143077077Y-88980448D01*
X143177880Y-88985592D01*
X143231896Y-88972694D01*
X143234776Y-88966497D01*
X143198797Y-88912917D01*
X143109249Y-88852485D01*
X142993713Y-88800446D01*
X142883880Y-88772528D01*
X142752329Y-88742745D01*
X142649666Y-88702499D01*
X142571419Y-88670638D01*
X142535783Y-88688827D01*
X142530429Y-88701735D01*
X142487644Y-88732922D01*
X142465945Y-88725673D01*
X142406823Y-88714029D01*
X142298338Y-88708573D01*
X142171802Y-88709014D01*
X142058525Y-88715059D01*
X141989818Y-88726417D01*
X141983148Y-88730175D01*
X141693924Y-88730175D01*
X141693153Y-88728706D01*
X141537256Y-88562147D01*
X141327065Y-88456724D01*
X141061064Y-88412013D01*
X140737738Y-88427587D01*
X140659031Y-88439019D01*
X140522400Y-88452475D01*
X140462556Y-88436323D01*
X140459279Y-88425814D01*
X140490120Y-88363110D01*
X140501332Y-88354536D01*
X140546145Y-88309308D01*
X140524729Y-88286380D01*
X140454539Y-88299616D01*
X140440138Y-88305927D01*
X140365918Y-88360433D01*
X140357834Y-88440368D01*
X138380587Y-88440368D01*
X138383305Y-88368448D01*
X138381900Y-88349970D01*
X138706268Y-88349970D01*
X138721912Y-88412622D01*
X138745399Y-88408934D01*
X138768729Y-88331505D01*
X138769028Y-88329491D01*
X139034827Y-88329491D01*
X139035798Y-88387921D01*
X139079785Y-88405739D01*
X139095997Y-88401088D01*
X139176114Y-88378397D01*
X139201129Y-88375563D01*
X139232512Y-88340311D01*
X139239743Y-88291457D01*
X139223498Y-88249404D01*
X140606465Y-88249404D01*
X140624797Y-88277378D01*
X140712212Y-88290399D01*
X140740655Y-88290813D01*
X140837541Y-88285184D01*
X140858375Y-88267253D01*
X140846494Y-88256968D01*
X141291411Y-88256968D01*
X141340069Y-88298033D01*
X141461059Y-88346519D01*
X141542143Y-88372363D01*
X141550595Y-88339696D01*
X141552657Y-88288975D01*
X141549437Y-88274108D01*
X142151764Y-88274108D01*
X142187719Y-88303574D01*
X142274655Y-88345660D01*
X142402705Y-88395348D01*
X142565012Y-88449999D01*
X142728120Y-88499159D01*
X142858571Y-88532372D01*
X142891811Y-88538518D01*
X142944390Y-88567205D01*
X143028835Y-88631299D01*
X143047701Y-88647212D01*
X143140906Y-88718179D01*
X143185409Y-88724034D01*
X143187874Y-88662975D01*
X143176824Y-88612314D01*
X143145391Y-88546206D01*
X143077211Y-88501914D01*
X142950070Y-88465863D01*
X142929969Y-88461483D01*
X142764889Y-88421995D01*
X142570629Y-88369668D01*
X142439882Y-88331214D01*
X142283827Y-88287405D01*
X142185794Y-88268544D01*
X142151764Y-88274108D01*
X141549437Y-88274108D01*
X141539571Y-88228565D01*
X141519109Y-88223121D01*
X141458767Y-88222146D01*
X141425900Y-88206982D01*
X141342186Y-88198711D01*
X141307846Y-88218570D01*
X141291411Y-88256968D01*
X140846494Y-88256968D01*
X140837756Y-88249404D01*
X140736666Y-88211971D01*
X140644269Y-88219758D01*
X140606465Y-88249404D01*
X139223498Y-88249404D01*
X139212744Y-88221567D01*
X139147166Y-88213694D01*
X139079942Y-88257814D01*
X139034827Y-88329491D01*
X138769028Y-88329491D01*
X138774667Y-88291457D01*
X138794142Y-88174460D01*
X138812691Y-88141556D01*
X139408016Y-88141556D01*
X139417809Y-88185559D01*
X139487052Y-88195494D01*
X139523600Y-88188534D01*
X139652895Y-88161863D01*
X139744379Y-88148148D01*
X139839058Y-88136635D01*
X139885887Y-88129815D01*
X139891892Y-88095385D01*
X139855652Y-88021588D01*
X139854822Y-88020316D01*
X139842736Y-87992241D01*
X140127137Y-87992241D01*
X140170442Y-87985122D01*
X140180104Y-87981772D01*
X140236663Y-87974822D01*
X140235568Y-88013524D01*
X140229211Y-88081086D01*
X140237894Y-88098107D01*
X140278883Y-88122155D01*
X140270377Y-88082013D01*
X140266250Y-88075059D01*
X140268973Y-88045582D01*
X140340688Y-88051321D01*
X140358388Y-88055254D01*
X140480306Y-88083636D01*
X140341012Y-87992518D01*
X140242861Y-87937134D01*
X140183245Y-87932182D01*
X140151774Y-87955433D01*
X140127137Y-87992241D01*
X139842736Y-87992241D01*
X139813607Y-87924580D01*
X139812930Y-87882795D01*
X141385065Y-87882795D01*
X141411858Y-87988651D01*
X141479064Y-88037828D01*
X141578677Y-88068054D01*
X141662192Y-88078035D01*
X141706337Y-88067197D01*
X141697740Y-88043221D01*
X141624862Y-88004023D01*
X141574739Y-87990282D01*
X141494762Y-87943727D01*
X141438687Y-87870554D01*
X141385685Y-87765794D01*
X141385065Y-87882795D01*
X139812930Y-87882795D01*
X139812432Y-87852104D01*
X139799844Y-87805588D01*
X139799092Y-87805366D01*
X139996696Y-87805366D01*
X140018652Y-87862903D01*
X140038749Y-87870927D01*
X140079599Y-87840744D01*
X140080802Y-87831356D01*
X140050234Y-87774402D01*
X140038749Y-87765794D01*
X140002748Y-87775328D01*
X139996696Y-87805366D01*
X139799092Y-87805366D01*
X139733400Y-87785973D01*
X139639020Y-87793513D01*
X139542619Y-87828459D01*
X139510612Y-87849158D01*
X139462715Y-87889804D01*
X139477584Y-87899946D01*
X139564946Y-87886086D01*
X139565653Y-87885954D01*
X139668219Y-87879488D01*
X139698712Y-87905774D01*
X139657891Y-87955496D01*
X139555140Y-88015294D01*
X139454764Y-88079472D01*
X139408016Y-88141556D01*
X138812691Y-88141556D01*
X138825974Y-88117994D01*
X138888089Y-88098666D01*
X138924345Y-88096146D01*
X139024456Y-88079939D01*
X139141265Y-88045692D01*
X139250930Y-88002863D01*
X139329612Y-87960907D01*
X139353470Y-87929282D01*
X139351567Y-87926681D01*
X139300131Y-87923261D01*
X139205703Y-87946064D01*
X139193561Y-87950171D01*
X139051051Y-87984452D01*
X138920552Y-87997086D01*
X138802703Y-88014696D01*
X138737109Y-88078622D01*
X138708367Y-88205505D01*
X138706469Y-88228377D01*
X138706268Y-88349970D01*
X138381900Y-88349970D01*
X138375491Y-88265703D01*
X138361318Y-88210412D01*
X138356945Y-88207351D01*
X138314629Y-88241100D01*
X138270936Y-88315202D01*
X138246878Y-88388937D01*
X138249832Y-88414920D01*
X138237677Y-88458020D01*
X138209203Y-88474969D01*
X138153445Y-88529185D01*
X138146365Y-88559828D01*
X137973848Y-88559828D01*
X137991474Y-88505560D01*
X138116321Y-88336660D01*
X138135852Y-88319944D01*
X138215298Y-88238741D01*
X138216153Y-88187452D01*
X138138405Y-88166015D01*
X138110830Y-88165298D01*
X137995155Y-88140501D01*
X137907796Y-88059926D01*
X137842478Y-87914296D01*
X137793139Y-87695607D01*
X137741157Y-87387318D01*
X137605705Y-87401171D01*
X137467926Y-87431007D01*
X137356240Y-87474505D01*
X137257917Y-87517430D01*
X137189660Y-87534244D01*
X137140800Y-87561068D01*
X137137094Y-87576556D01*
X137101256Y-87608701D01*
X137036718Y-87618609D01*
X136956559Y-87647449D01*
X136830464Y-87735472D01*
X136655427Y-87884930D01*
X136542596Y-87989060D01*
X136335851Y-88181119D01*
X136178497Y-88320648D01*
X136060874Y-88415002D01*
X135973319Y-88471540D01*
X135906172Y-88497619D01*
X135869378Y-88501722D01*
X135813719Y-88463194D01*
X135726372Y-88347468D01*
X135607189Y-88154331D01*
X135521285Y-88002913D01*
X135419665Y-87816419D01*
X135334840Y-87654614D01*
X135274402Y-87532444D01*
X135245940Y-87464854D01*
X135244710Y-87458314D01*
X135277113Y-87401687D01*
X135315143Y-87373107D01*
X135370163Y-87319077D01*
X135397324Y-87252119D01*
X135387024Y-87204551D01*
X135367148Y-87198079D01*
X135343142Y-87160763D01*
X135329792Y-87067545D01*
X135328816Y-87029867D01*
X135334342Y-86959223D01*
X135460903Y-86959223D01*
X135468942Y-87085293D01*
X135499519Y-87160681D01*
X135516974Y-87196761D01*
X135533340Y-87218261D01*
X135561687Y-87220393D01*
X135615084Y-87198371D01*
X135706603Y-87147409D01*
X135849314Y-87062720D01*
X135980210Y-86984648D01*
X136076098Y-86917124D01*
X136115824Y-86845097D01*
X136120502Y-86732330D01*
X136110850Y-86628255D01*
X136107075Y-86614945D01*
X140375173Y-86614945D01*
X140386537Y-86709479D01*
X140412258Y-86755145D01*
X140439785Y-86739313D01*
X140452326Y-86692586D01*
X140444918Y-86598789D01*
X140420787Y-86554024D01*
X140386575Y-86542381D01*
X140375234Y-86606112D01*
X140375173Y-86614945D01*
X136107075Y-86614945D01*
X136094732Y-86571423D01*
X136089389Y-86567817D01*
X136037066Y-86586796D01*
X135935294Y-86634646D01*
X135807931Y-86699009D01*
X135678836Y-86767528D01*
X135571868Y-86827847D01*
X135511419Y-86867162D01*
X135460903Y-86959223D01*
X135334342Y-86959223D01*
X135337057Y-86924518D01*
X135357645Y-86865936D01*
X135365964Y-86861655D01*
X135405251Y-86826665D01*
X135425051Y-86777762D01*
X135472975Y-86698760D01*
X135514062Y-86672629D01*
X135612019Y-86639022D01*
X135713966Y-86600842D01*
X135749345Y-86586286D01*
X135801663Y-86567348D01*
X135864991Y-86546210D01*
X135938127Y-86511934D01*
X135959610Y-86486896D01*
X135994938Y-86455794D01*
X136084938Y-86408383D01*
X136149203Y-86380184D01*
X136180990Y-86363537D01*
X136338087Y-86363537D01*
X136341424Y-86384442D01*
X136358895Y-86391806D01*
X136401689Y-86381322D01*
X136480995Y-86348681D01*
X136608005Y-86289575D01*
X136793906Y-86199694D01*
X136907404Y-86144325D01*
X137013607Y-86090379D01*
X140427621Y-86090379D01*
X140436961Y-86130801D01*
X140460951Y-86148638D01*
X140547694Y-86175679D01*
X140601591Y-86125633D01*
X140619771Y-86048892D01*
X140615338Y-85959243D01*
X140573359Y-85944179D01*
X140495850Y-86004066D01*
X140477982Y-86023163D01*
X140427621Y-86090379D01*
X137013607Y-86090379D01*
X137155337Y-86018387D01*
X137338684Y-85912834D01*
X137471639Y-85818599D01*
X137568397Y-85726611D01*
X137577453Y-85716226D01*
X137661040Y-85607127D01*
X137715045Y-85514684D01*
X137726244Y-85476851D01*
X137754823Y-85399977D01*
X141891367Y-85399977D01*
X141921178Y-85495534D01*
X142025629Y-85590172D01*
X142201683Y-85680994D01*
X142446307Y-85765102D01*
X142709114Y-85829836D01*
X142846232Y-85855671D01*
X142948333Y-85869037D01*
X142988593Y-85868017D01*
X143020029Y-85825593D01*
X143076961Y-85728447D01*
X143147377Y-85597133D01*
X143151171Y-85589777D01*
X143232484Y-85440758D01*
X144124024Y-85440758D01*
X144140013Y-85478310D01*
X144233517Y-85518892D01*
X144407444Y-85564375D01*
X144443799Y-85572421D01*
X144606711Y-85611105D01*
X144742098Y-85649248D01*
X144824910Y-85679660D01*
X144832789Y-85684071D01*
X144904124Y-85716328D01*
X144992261Y-85720924D01*
X145119900Y-85696620D01*
X145245686Y-85661516D01*
X145378313Y-85614792D01*
X145445145Y-85568299D01*
X145463584Y-85509924D01*
X145463584Y-85509832D01*
X145447612Y-85447799D01*
X145389991Y-85452830D01*
X145196977Y-85528021D01*
X145062288Y-85569882D01*
X144968410Y-85581445D01*
X144897828Y-85565743D01*
X144859659Y-85544682D01*
X144761266Y-85500092D01*
X144618014Y-85457330D01*
X144458482Y-85422321D01*
X144311250Y-85400988D01*
X144204897Y-85399255D01*
X144182643Y-85404366D01*
X144124024Y-85440758D01*
X143232484Y-85440758D01*
X143237576Y-85431426D01*
X143327221Y-85282007D01*
X143391650Y-85186550D01*
X143455358Y-85095678D01*
X143474385Y-85029954D01*
X143466401Y-85000811D01*
X144034427Y-85000811D01*
X144059522Y-85067432D01*
X144139966Y-85125111D01*
X144288010Y-85181599D01*
X144349180Y-85199975D01*
X144507875Y-85249277D01*
X144652894Y-85300246D01*
X144727657Y-85330742D01*
X144855665Y-85363129D01*
X145014965Y-85368635D01*
X145173003Y-85349840D01*
X145297224Y-85309322D01*
X145335623Y-85282578D01*
X145367251Y-85214182D01*
X145342273Y-85159932D01*
X145282527Y-85147527D01*
X145244588Y-85167109D01*
X145107901Y-85231867D01*
X144956929Y-85239702D01*
X144847038Y-85199989D01*
X144729944Y-85137981D01*
X144581770Y-85079870D01*
X144421422Y-85030290D01*
X144267807Y-84993875D01*
X144139834Y-84975259D01*
X144056408Y-84979076D01*
X144034427Y-85000811D01*
X143466401Y-85000811D01*
X143452543Y-84950226D01*
X143421520Y-84879635D01*
X143368785Y-84773130D01*
X143325884Y-84704208D01*
X143315614Y-84693907D01*
X143260995Y-84697391D01*
X143148206Y-84726827D01*
X142996466Y-84775223D01*
X142824990Y-84835589D01*
X142652995Y-84900933D01*
X142499699Y-84964263D01*
X142384317Y-85018589D01*
X142330637Y-85052257D01*
X142240816Y-85117963D01*
X142115603Y-85192621D01*
X142067806Y-85217698D01*
X141939231Y-85306400D01*
X141891367Y-85399977D01*
X137754823Y-85399977D01*
X137757069Y-85393936D01*
X137839100Y-85273762D01*
X137957773Y-85131488D01*
X138098520Y-84982275D01*
X138246776Y-84841281D01*
X138387975Y-84723666D01*
X138507550Y-84644590D01*
X138540748Y-84629155D01*
X138646795Y-84571160D01*
X138765522Y-84482573D01*
X138875891Y-84382438D01*
X138940628Y-84308373D01*
X139244437Y-84308373D01*
X139276068Y-84415324D01*
X139305281Y-84491040D01*
X139387128Y-84680264D01*
X139465277Y-84835998D01*
X139533392Y-84948443D01*
X139585141Y-85007797D01*
X139614188Y-85004261D01*
X139618220Y-84975197D01*
X139600416Y-84921606D01*
X139553872Y-84816798D01*
X139492593Y-84691340D01*
X139456662Y-84616799D01*
X139756874Y-84616799D01*
X139779856Y-84627307D01*
X139836516Y-84629892D01*
X139929546Y-84618010D01*
X139975670Y-84590794D01*
X139971507Y-84557184D01*
X139908442Y-84557613D01*
X139807458Y-84590794D01*
X139756874Y-84616799D01*
X139456662Y-84616799D01*
X139428009Y-84557356D01*
X139406467Y-84506689D01*
X139702326Y-84506689D01*
X139716673Y-84547648D01*
X139720870Y-84548741D01*
X139746488Y-84527715D01*
X140038749Y-84527715D01*
X140059776Y-84548741D01*
X140080802Y-84527715D01*
X140059776Y-84506689D01*
X140038749Y-84527715D01*
X139746488Y-84527715D01*
X139756774Y-84519273D01*
X139765405Y-84506689D01*
X139764380Y-84494779D01*
X142267557Y-84494779D01*
X142302982Y-84505354D01*
X142394598Y-84490109D01*
X142520416Y-84454236D01*
X142658451Y-84402930D01*
X142661093Y-84401821D01*
X142756501Y-84356214D01*
X142804195Y-84322419D01*
X142805066Y-84315279D01*
X142759464Y-84318056D01*
X142662072Y-84342946D01*
X142538597Y-84381362D01*
X142414741Y-84424723D01*
X142316210Y-84464443D01*
X142268709Y-84491938D01*
X142267557Y-84494779D01*
X139764380Y-84494779D01*
X139762071Y-84467937D01*
X139746860Y-84464636D01*
X139704037Y-84495162D01*
X139702326Y-84506689D01*
X139406467Y-84506689D01*
X139382484Y-84450279D01*
X139366434Y-84396192D01*
X139336730Y-84331938D01*
X139302822Y-84296424D01*
X139253369Y-84269906D01*
X139244437Y-84308373D01*
X138940628Y-84308373D01*
X138956864Y-84289797D01*
X138987425Y-84224810D01*
X138973654Y-84197880D01*
X139615814Y-84197880D01*
X139624982Y-84301411D01*
X139643745Y-84356064D01*
X139678719Y-84417223D01*
X139697206Y-84400993D01*
X139693656Y-84349169D01*
X139708394Y-84311415D01*
X144297574Y-84311415D01*
X144297920Y-84351625D01*
X144367773Y-84409906D01*
X144464826Y-84461878D01*
X144626303Y-84528416D01*
X144720768Y-84545272D01*
X144748163Y-84517202D01*
X144713255Y-84470272D01*
X144628405Y-84408508D01*
X144521741Y-84348367D01*
X144421392Y-84306304D01*
X144370796Y-84296424D01*
X144297574Y-84311415D01*
X139708394Y-84311415D01*
X139722840Y-84274410D01*
X139793028Y-84226335D01*
X140431244Y-84226335D01*
X140437017Y-84251336D01*
X140459279Y-84254371D01*
X140493894Y-84238984D01*
X140487315Y-84226335D01*
X140437408Y-84221302D01*
X140431244Y-84226335D01*
X139793028Y-84226335D01*
X139828485Y-84202049D01*
X139975670Y-84128342D01*
X139796945Y-84128277D01*
X139670678Y-84143821D01*
X139615814Y-84197880D01*
X138973654Y-84197880D01*
X138962053Y-84175192D01*
X138896643Y-84184043D01*
X138807257Y-84247170D01*
X138773977Y-84280555D01*
X138685565Y-84364074D01*
X138558137Y-84470392D01*
X138440736Y-84560464D01*
X138299766Y-84672401D01*
X138144297Y-84809617D01*
X137987198Y-84958979D01*
X137841341Y-85107351D01*
X137719598Y-85241600D01*
X137634838Y-85348591D01*
X137599933Y-85415189D01*
X137599677Y-85418746D01*
X137567331Y-85492092D01*
X137482619Y-85593595D01*
X137364023Y-85706092D01*
X137230029Y-85812422D01*
X137099121Y-85895421D01*
X137071028Y-85909579D01*
X136952937Y-85967239D01*
X136860310Y-86015464D01*
X136842723Y-86025484D01*
X136764049Y-86068400D01*
X136652291Y-86125121D01*
X136632458Y-86134839D01*
X136481212Y-86219208D01*
X136378068Y-86298670D01*
X136338155Y-86361470D01*
X136338087Y-86363537D01*
X136180990Y-86363537D01*
X136276633Y-86313449D01*
X136327721Y-86251304D01*
X136327929Y-86237224D01*
X136352853Y-86171072D01*
X136411390Y-86124328D01*
X136552161Y-86032084D01*
X136645524Y-85929581D01*
X136674511Y-85845866D01*
X136709627Y-85746823D01*
X136793842Y-85655620D01*
X136895453Y-85603445D01*
X136924347Y-85600066D01*
X137004851Y-85580756D01*
X137031961Y-85558013D01*
X137089928Y-85525461D01*
X137160602Y-85515960D01*
X137238437Y-85501248D01*
X137263253Y-85473907D01*
X137297314Y-85436599D01*
X137326332Y-85431854D01*
X137377066Y-85395297D01*
X137389412Y-85326722D01*
X137403807Y-85247691D01*
X137431465Y-85221589D01*
X137468773Y-85187528D01*
X137473518Y-85158510D01*
X137503856Y-85102684D01*
X137530136Y-85095430D01*
X137626167Y-85072471D01*
X137739623Y-85016705D01*
X137836656Y-84947797D01*
X137881884Y-84891055D01*
X137922679Y-84827147D01*
X138007000Y-84726583D01*
X138119400Y-84604899D01*
X138244436Y-84477632D01*
X138366661Y-84360317D01*
X138470633Y-84268489D01*
X138540904Y-84217685D01*
X138556649Y-84212318D01*
X138618285Y-84178465D01*
X138635794Y-84149238D01*
X138693220Y-84095725D01*
X138738127Y-84086159D01*
X138818730Y-84052353D01*
X138843485Y-84023079D01*
X139205888Y-84023079D01*
X139210434Y-84094898D01*
X139223598Y-84101221D01*
X139225274Y-84097472D01*
X139233593Y-84013989D01*
X139226832Y-83971313D01*
X139213446Y-83954164D01*
X139206165Y-84010020D01*
X139205888Y-84023079D01*
X138843485Y-84023079D01*
X138861266Y-84002053D01*
X138921568Y-83935072D01*
X138967878Y-83917947D01*
X139008915Y-83891323D01*
X139009832Y-83886901D01*
X140146475Y-83886901D01*
X140169325Y-83934208D01*
X140218994Y-83959251D01*
X140399886Y-83998335D01*
X140518919Y-83976527D01*
X140570676Y-83933252D01*
X140965488Y-83933252D01*
X140997806Y-83983284D01*
X141076641Y-84059474D01*
X141177825Y-84142400D01*
X141277190Y-84212640D01*
X141350570Y-84250770D01*
X141363418Y-84253050D01*
X141435612Y-84232341D01*
X141453870Y-84222187D01*
X141525824Y-84156289D01*
X141618342Y-84045490D01*
X141716172Y-83911765D01*
X141722499Y-83902069D01*
X142393716Y-83902069D01*
X142414172Y-83914657D01*
X142470076Y-83860636D01*
X142483186Y-83844354D01*
X142519556Y-83794543D01*
X142497779Y-83804985D01*
X142467309Y-83828477D01*
X142409067Y-83880353D01*
X142393716Y-83902069D01*
X141722499Y-83902069D01*
X141804060Y-83777088D01*
X141866752Y-83663435D01*
X141889081Y-83595199D01*
X141886233Y-83539470D01*
X142646034Y-83539470D01*
X142660382Y-83580430D01*
X142664579Y-83581523D01*
X142700482Y-83552055D01*
X142709114Y-83539470D01*
X142705780Y-83500719D01*
X142690569Y-83497417D01*
X142647746Y-83527944D01*
X142646034Y-83539470D01*
X141886233Y-83539470D01*
X141885223Y-83519704D01*
X141878567Y-83497561D01*
X141834030Y-83512847D01*
X141732755Y-83552767D01*
X141595299Y-83608795D01*
X141442217Y-83672410D01*
X141294067Y-83735085D01*
X141171403Y-83788297D01*
X141108144Y-83817036D01*
X141015252Y-83872700D01*
X140967327Y-83924118D01*
X140965488Y-83933252D01*
X140570676Y-83933252D01*
X140579788Y-83925633D01*
X140560129Y-83850826D01*
X140523296Y-83807744D01*
X140448875Y-83722707D01*
X140407498Y-83668085D01*
X140678492Y-83668085D01*
X140684327Y-83684021D01*
X140732624Y-83723022D01*
X140812784Y-83778694D01*
X140863919Y-83781598D01*
X140913451Y-83741324D01*
X140957662Y-83679113D01*
X140957217Y-83642642D01*
X140915204Y-83654454D01*
X140902854Y-83663954D01*
X140812249Y-83693838D01*
X140745155Y-83685780D01*
X140678492Y-83668085D01*
X140407498Y-83668085D01*
X140399000Y-83656866D01*
X140330005Y-83602649D01*
X140260022Y-83629757D01*
X140193352Y-83735579D01*
X140169690Y-83796146D01*
X140146475Y-83886901D01*
X139009832Y-83886901D01*
X139027352Y-83802447D01*
X139029478Y-83729678D01*
X139020842Y-83608216D01*
X139019811Y-83605522D01*
X139648877Y-83605522D01*
X139710482Y-83618892D01*
X139836516Y-83622932D01*
X139971257Y-83616434D01*
X140069111Y-83598984D01*
X140075562Y-83595541D01*
X141019986Y-83595541D01*
X141025758Y-83620541D01*
X141048021Y-83623576D01*
X141082635Y-83608189D01*
X141076056Y-83595541D01*
X141026149Y-83590508D01*
X141019986Y-83595541D01*
X140075562Y-83595541D01*
X140101829Y-83581523D01*
X140082873Y-83557109D01*
X140006468Y-83543485D01*
X139898577Y-83540649D01*
X139785163Y-83548602D01*
X139692186Y-83567345D01*
X139660273Y-83581523D01*
X139648877Y-83605522D01*
X139019811Y-83605522D01*
X138987453Y-83520943D01*
X138984459Y-83518443D01*
X141258286Y-83518443D01*
X141279312Y-83539470D01*
X141300339Y-83518443D01*
X141279312Y-83497417D01*
X141258286Y-83518443D01*
X138984459Y-83518443D01*
X138918089Y-83463016D01*
X138801529Y-83429595D01*
X138626551Y-83415838D01*
X138381933Y-83416903D01*
X138309129Y-83418902D01*
X138092535Y-83424349D01*
X137944767Y-83424031D01*
X137850643Y-83416215D01*
X137794979Y-83399168D01*
X137762707Y-83371258D01*
X141384445Y-83371258D01*
X141418674Y-83408164D01*
X141450006Y-83413311D01*
X141493533Y-83392924D01*
X141489577Y-83371258D01*
X141435814Y-83330809D01*
X141424016Y-83329205D01*
X141385577Y-83361281D01*
X141384445Y-83371258D01*
X137762707Y-83371258D01*
X137762593Y-83371159D01*
X137752058Y-83355338D01*
X137726411Y-83287518D01*
X137757375Y-83257214D01*
X137805541Y-83203911D01*
X137809942Y-83178515D01*
X137772954Y-83144671D01*
X137680405Y-83123975D01*
X137559915Y-83117141D01*
X137439105Y-83124888D01*
X137345596Y-83147931D01*
X137317381Y-83165740D01*
X137253939Y-83196355D01*
X137208068Y-83149409D01*
X137182956Y-83030208D01*
X137179147Y-82935631D01*
X137170029Y-82800536D01*
X137146728Y-82697461D01*
X137128683Y-82664768D01*
X137044657Y-82626349D01*
X136926026Y-82616015D01*
X136816153Y-82634341D01*
X136771774Y-82660022D01*
X136721013Y-82682996D01*
X136697802Y-82660022D01*
X136640997Y-82630579D01*
X136535703Y-82615030D01*
X136506299Y-82614304D01*
X136386791Y-82602177D01*
X136366901Y-82593278D01*
X137599677Y-82593278D01*
X137620703Y-82614304D01*
X137641730Y-82593278D01*
X137620703Y-82572251D01*
X137599677Y-82593278D01*
X136366901Y-82593278D01*
X136317952Y-82571377D01*
X136313286Y-82530276D01*
X136337401Y-82509596D01*
X136368201Y-82452412D01*
X136380140Y-82359505D01*
X136374437Y-82283438D01*
X136342122Y-82247408D01*
X136260387Y-82236511D01*
X136190902Y-82235828D01*
X136078044Y-82244180D01*
X136010347Y-82265313D01*
X136001663Y-82277881D01*
X135967602Y-82315189D01*
X135938584Y-82319934D01*
X135882649Y-82295488D01*
X135875504Y-82274592D01*
X135837893Y-82247081D01*
X135739030Y-82241526D01*
X135717806Y-82243052D01*
X135611211Y-82244677D01*
X135586616Y-82231119D01*
X137441724Y-82231119D01*
X137447126Y-82271120D01*
X137477919Y-82387852D01*
X137521067Y-82473729D01*
X137521836Y-82474669D01*
X137568855Y-82514294D01*
X137612019Y-82485134D01*
X137629004Y-82462879D01*
X137674431Y-82366409D01*
X137683783Y-82310416D01*
X137695732Y-82257961D01*
X137746496Y-82266996D01*
X137768758Y-82278346D01*
X137852079Y-82302482D01*
X137910567Y-82287370D01*
X137917818Y-82241308D01*
X137913278Y-82232922D01*
X137915642Y-82198883D01*
X137967699Y-82195689D01*
X138042648Y-82219222D01*
X138111514Y-82263372D01*
X138168549Y-82309528D01*
X138186962Y-82296772D01*
X138188418Y-82263015D01*
X138199026Y-82217113D01*
X138245714Y-82229347D01*
X138273807Y-82245984D01*
X138345874Y-82276997D01*
X138391194Y-82247871D01*
X138399322Y-82235828D01*
X138429189Y-82204030D01*
X138439563Y-82246673D01*
X138440092Y-82271573D01*
X138410008Y-82365000D01*
X138331075Y-82477635D01*
X138297756Y-82513377D01*
X138181024Y-82606449D01*
X138048322Y-82656218D01*
X137875304Y-82669098D01*
X137736349Y-82661306D01*
X137654932Y-82668468D01*
X137639853Y-82705571D01*
X137681845Y-82765701D01*
X137771645Y-82841947D01*
X137899987Y-82927393D01*
X138057607Y-83015127D01*
X138235240Y-83098236D01*
X138413034Y-83166251D01*
X138632034Y-83222765D01*
X138913559Y-83268648D01*
X139236471Y-83301916D01*
X139579634Y-83320580D01*
X139921912Y-83322655D01*
X140038749Y-83319046D01*
X140237282Y-83314033D01*
X140416923Y-83315334D01*
X140553093Y-83322475D01*
X140606465Y-83329981D01*
X140733577Y-83345926D01*
X140902659Y-83349671D01*
X141086012Y-83342681D01*
X141255937Y-83326424D01*
X141384736Y-83302367D01*
X141427731Y-83286492D01*
X141460202Y-83264633D01*
X141859487Y-83264633D01*
X141873911Y-83317286D01*
X141894206Y-83333263D01*
X141968887Y-83358320D01*
X142070133Y-83369271D01*
X142165156Y-83365686D01*
X142221169Y-83347134D01*
X142225504Y-83337616D01*
X142225076Y-83336794D01*
X143364804Y-83336794D01*
X143394932Y-83365990D01*
X143402988Y-83371258D01*
X143466267Y-83407978D01*
X143485772Y-83397057D01*
X143487094Y-83371258D01*
X143452420Y-83335913D01*
X143413501Y-83329849D01*
X143364804Y-83336794D01*
X142225076Y-83336794D01*
X142188283Y-83266208D01*
X142138796Y-83239340D01*
X143024511Y-83239340D01*
X143060247Y-83277835D01*
X143119130Y-83296415D01*
X143210529Y-83302464D01*
X143241076Y-83285455D01*
X143231272Y-83271350D01*
X143168083Y-83238901D01*
X143089149Y-83222357D01*
X143032557Y-83227615D01*
X143024511Y-83239340D01*
X142138796Y-83239340D01*
X142095816Y-83216005D01*
X142009311Y-83203046D01*
X141909400Y-83221147D01*
X141859487Y-83264633D01*
X141460202Y-83264633D01*
X141532726Y-83215810D01*
X141587846Y-83167857D01*
X141670973Y-83112304D01*
X141795928Y-83056657D01*
X141847494Y-83039165D01*
X142194694Y-82926439D01*
X142493754Y-82816461D01*
X142739137Y-82712101D01*
X142925306Y-82616228D01*
X143046726Y-82531712D01*
X143097859Y-82461422D01*
X143073168Y-82408227D01*
X143069513Y-82405862D01*
X143039222Y-82341809D01*
X143047160Y-82265363D01*
X143059638Y-82193896D01*
X143033756Y-82168815D01*
X142949332Y-82176096D01*
X142924429Y-82180075D01*
X142820902Y-82189114D01*
X142765369Y-82160381D01*
X142726799Y-82083471D01*
X142679426Y-81962483D01*
X142641622Y-82060986D01*
X142619925Y-82148036D01*
X142624010Y-82192160D01*
X142602770Y-82206549D01*
X142524290Y-82199177D01*
X142508445Y-82196010D01*
X142414736Y-82165307D01*
X142381497Y-82111136D01*
X142381199Y-82050001D01*
X142414192Y-81920430D01*
X143150670Y-81920430D01*
X143171696Y-81941457D01*
X143192723Y-81920430D01*
X143171696Y-81899404D01*
X143150670Y-81920430D01*
X142414192Y-81920430D01*
X142421039Y-81893541D01*
X142505720Y-81780335D01*
X142620418Y-81729084D01*
X142636490Y-81727955D01*
X142827471Y-81715617D01*
X143024867Y-81692429D01*
X143084678Y-81682719D01*
X143155906Y-81698612D01*
X143191606Y-81772821D01*
X143219436Y-81837405D01*
X143249213Y-81822709D01*
X143278368Y-81733434D01*
X143304336Y-81574286D01*
X143305576Y-81563982D01*
X143313022Y-81422823D01*
X143291579Y-81358839D01*
X143239716Y-81369676D01*
X143201134Y-81403179D01*
X143137928Y-81432952D01*
X143094850Y-81400464D01*
X143087285Y-81327427D01*
X143107394Y-81270895D01*
X143121297Y-81164526D01*
X143081333Y-81023468D01*
X142996722Y-80868655D01*
X142876682Y-80721022D01*
X142856406Y-80700996D01*
X142730140Y-80580026D01*
X142730140Y-80890014D01*
X142704745Y-81183444D01*
X142628442Y-81409931D01*
X142501057Y-81569614D01*
X142322414Y-81662634D01*
X142092338Y-81689130D01*
X141810654Y-81649241D01*
X141785002Y-81642964D01*
X141618271Y-81579423D01*
X141499126Y-81476271D01*
X141413252Y-81317186D01*
X141365491Y-81164650D01*
X141312550Y-80898638D01*
X141301902Y-80677107D01*
X141333281Y-80510464D01*
X141373797Y-80444805D01*
X141538798Y-80444805D01*
X141541399Y-80515202D01*
X141593732Y-80578228D01*
X141682978Y-80594252D01*
X141774775Y-80560921D01*
X141804530Y-80533217D01*
X141838160Y-80444548D01*
X141801426Y-80372513D01*
X141709573Y-80343443D01*
X141594072Y-80370765D01*
X141538798Y-80444805D01*
X141373797Y-80444805D01*
X141384445Y-80427549D01*
X141445728Y-80357742D01*
X141468551Y-80316540D01*
X141498018Y-80272676D01*
X141542143Y-80233771D01*
X141582050Y-80196460D01*
X141559744Y-80180456D01*
X141472520Y-80176569D01*
X141309650Y-80211822D01*
X141191468Y-80280364D01*
X141068596Y-80361110D01*
X140990741Y-80383467D01*
X140963915Y-80346524D01*
X140929999Y-80303482D01*
X140846969Y-80249426D01*
X140833208Y-80242345D01*
X140699416Y-80203822D01*
X140585769Y-80240879D01*
X140503238Y-80320121D01*
X140426917Y-80374500D01*
X140348368Y-80381545D01*
X140297914Y-80342440D01*
X140292405Y-80311904D01*
X140318007Y-80220832D01*
X140355484Y-80156681D01*
X140413060Y-80071418D01*
X140413541Y-80067486D01*
X142659027Y-80067486D01*
X142720779Y-80153487D01*
X142761755Y-80181900D01*
X142877303Y-80243308D01*
X142937403Y-80246425D01*
X142952468Y-80185270D01*
X142938078Y-80080612D01*
X142904371Y-79933293D01*
X142863888Y-79797436D01*
X142855951Y-79775728D01*
X142807346Y-79649569D01*
X142728453Y-79796755D01*
X142661994Y-79953301D01*
X142659027Y-80067486D01*
X140413541Y-80067486D01*
X140416588Y-80042551D01*
X140371807Y-80067322D01*
X140284456Y-80142972D01*
X140189578Y-80236430D01*
X140066738Y-80357135D01*
X139976731Y-80427473D01*
X139897220Y-80460564D01*
X139805868Y-80469525D01*
X139792556Y-80469602D01*
X139679941Y-80478418D01*
X139607845Y-80500377D01*
X139599193Y-80508420D01*
X139544064Y-80544988D01*
X139456593Y-80573288D01*
X139337984Y-80599339D01*
X139413650Y-80818328D01*
X139471923Y-81059052D01*
X139488050Y-81303426D01*
X139461869Y-81523218D01*
X139418403Y-81647086D01*
X139299702Y-81794506D01*
X139119797Y-81899441D01*
X138894038Y-81954239D01*
X138789782Y-81960457D01*
X138656876Y-81955681D01*
X138562301Y-81928245D01*
X138470270Y-81863053D01*
X138395898Y-81794271D01*
X138286136Y-81674771D01*
X138196166Y-81552237D01*
X138162498Y-81490738D01*
X138119266Y-81333344D01*
X138106194Y-81156132D01*
X138124129Y-80996679D01*
X138149772Y-80925819D01*
X138154145Y-80913479D01*
X138268686Y-80913479D01*
X138300560Y-80988256D01*
X138378109Y-81015969D01*
X138480895Y-81003192D01*
X138564196Y-80956123D01*
X138568647Y-80951101D01*
X138593271Y-80874791D01*
X138553404Y-80810290D01*
X138468453Y-80775278D01*
X138381216Y-80780349D01*
X138298404Y-80832192D01*
X138268686Y-80913479D01*
X138154145Y-80913479D01*
X138176463Y-80850498D01*
X138171815Y-80817458D01*
X138121493Y-80818956D01*
X138047938Y-80891158D01*
X137957784Y-81026143D01*
X137885592Y-81159201D01*
X137815881Y-81307855D01*
X137780378Y-81425983D01*
X137771233Y-81553328D01*
X137778518Y-81701274D01*
X137786533Y-81858566D01*
X137780651Y-81951155D01*
X137758022Y-81997715D01*
X137730976Y-82012826D01*
X137575448Y-82067498D01*
X137485548Y-82112867D01*
X137446049Y-82162789D01*
X137441724Y-82231119D01*
X135586616Y-82231119D01*
X135562022Y-82217562D01*
X135547958Y-82172072D01*
X135564808Y-82099742D01*
X135649464Y-82044776D01*
X135669766Y-82036727D01*
X135770379Y-82008318D01*
X135836340Y-82006741D01*
X135839614Y-82008345D01*
X135873456Y-81999522D01*
X135875504Y-81985992D01*
X135909420Y-81946241D01*
X135937118Y-81941457D01*
X135998921Y-81911483D01*
X136092556Y-81834871D01*
X136198496Y-81731583D01*
X136297210Y-81621579D01*
X136369168Y-81524823D01*
X136393290Y-81475185D01*
X136392637Y-81467731D01*
X137373052Y-81467731D01*
X137377227Y-81520927D01*
X137410512Y-81589100D01*
X137436369Y-81605033D01*
X137466565Y-81569769D01*
X137473518Y-81520927D01*
X137448883Y-81452728D01*
X137414375Y-81436821D01*
X137373052Y-81467731D01*
X136392637Y-81467731D01*
X136385908Y-81390925D01*
X136341703Y-81299159D01*
X136281289Y-81236056D01*
X136251597Y-81226556D01*
X136219359Y-81261799D01*
X136211928Y-81310662D01*
X136194318Y-81378997D01*
X136169875Y-81394768D01*
X136132567Y-81428829D01*
X136127822Y-81457847D01*
X136092763Y-81509219D01*
X136043716Y-81520927D01*
X135975303Y-81498965D01*
X135959282Y-81468361D01*
X135920288Y-81406871D01*
X135817882Y-81355043D01*
X135672736Y-81320573D01*
X135535846Y-81310662D01*
X135380943Y-81294944D01*
X135289443Y-81250531D01*
X135285919Y-81246566D01*
X135249540Y-81189740D01*
X135249230Y-81171581D01*
X135358817Y-81112980D01*
X135469505Y-81073633D01*
X135540414Y-81066130D01*
X135593537Y-81041651D01*
X135614600Y-80984751D01*
X135613644Y-80921500D01*
X135569821Y-80895036D01*
X135478926Y-80890132D01*
X135376259Y-80881119D01*
X135334223Y-80845740D01*
X135328816Y-80806026D01*
X135353456Y-80740074D01*
X135433948Y-80721920D01*
X135512979Y-80707525D01*
X135539081Y-80679867D01*
X135573142Y-80642559D01*
X135602160Y-80637814D01*
X135631679Y-80623855D01*
X135650588Y-80572727D01*
X135660986Y-80470553D01*
X135664970Y-80303456D01*
X135665240Y-80220724D01*
X135664421Y-80151850D01*
X138788951Y-80151850D01*
X138817512Y-80174991D01*
X138819213Y-80176116D01*
X138892782Y-80202144D01*
X138975346Y-80205277D01*
X139032646Y-80187283D01*
X139039991Y-80164718D01*
X139008957Y-80133188D01*
X139008451Y-80133179D01*
X138870176Y-80134176D01*
X138801758Y-80139322D01*
X138788951Y-80151850D01*
X135664421Y-80151850D01*
X135662440Y-79985285D01*
X135656983Y-79894735D01*
X139005429Y-79894735D01*
X139044861Y-79955558D01*
X139095039Y-79964967D01*
X139140687Y-79929180D01*
X139150084Y-79859834D01*
X140459279Y-79859834D01*
X140480306Y-79880861D01*
X140501332Y-79859834D01*
X140496606Y-79855108D01*
X141036926Y-79855108D01*
X141055832Y-79876404D01*
X141108543Y-79890341D01*
X141207349Y-79898631D01*
X141364543Y-79902986D01*
X141592414Y-79905118D01*
X141617483Y-79905263D01*
X142215587Y-79908640D01*
X142196398Y-79737052D01*
X142162834Y-79493536D01*
X142123095Y-79298103D01*
X142080139Y-79162327D01*
X142036928Y-79097788D01*
X142032412Y-79095583D01*
X141892632Y-79083844D01*
X141745423Y-79140486D01*
X141613609Y-79255412D01*
X141584596Y-79293707D01*
X141504404Y-79391900D01*
X141431851Y-79451761D01*
X141405871Y-79460331D01*
X141349862Y-79493813D01*
X141342392Y-79523410D01*
X141337475Y-79600400D01*
X141334263Y-79618030D01*
X141364280Y-79646676D01*
X141446439Y-79670596D01*
X141553369Y-79701755D01*
X141580914Y-79739345D01*
X141532826Y-79777069D01*
X141412859Y-79808631D01*
X141359512Y-79816450D01*
X141199500Y-79828437D01*
X141110796Y-79814338D01*
X141090189Y-79796940D01*
X141058808Y-79781284D01*
X141039534Y-79824740D01*
X141036926Y-79855108D01*
X140496606Y-79855108D01*
X140480306Y-79838808D01*
X140459279Y-79859834D01*
X139150084Y-79859834D01*
X139155636Y-79818862D01*
X139155637Y-79817781D01*
X139141008Y-79708350D01*
X139104155Y-79674790D01*
X139055631Y-79720289D01*
X139028136Y-79779257D01*
X139005429Y-79894735D01*
X135656983Y-79894735D01*
X135652789Y-79825142D01*
X135634405Y-79731632D01*
X135605407Y-79696094D01*
X135563916Y-79709864D01*
X135555732Y-79716280D01*
X135473593Y-79745470D01*
X135434484Y-79739700D01*
X135383837Y-79683037D01*
X135373069Y-79596928D01*
X135406799Y-79527698D01*
X135412922Y-79523410D01*
X135445474Y-79465443D01*
X135454975Y-79394770D01*
X135466113Y-79316884D01*
X135486762Y-79292119D01*
X135522574Y-79257431D01*
X135569129Y-79172255D01*
X135576496Y-79155447D01*
X135661518Y-78960096D01*
X135724779Y-78828804D01*
X135774023Y-78746868D01*
X135816299Y-78700162D01*
X135867367Y-78632298D01*
X135875504Y-78599613D01*
X135904155Y-78535111D01*
X135959610Y-78472086D01*
X136022356Y-78402063D01*
X136043716Y-78356555D01*
X136067595Y-78298754D01*
X136125303Y-78213437D01*
X136127822Y-78210217D01*
X136189212Y-78089816D01*
X136211928Y-77970189D01*
X136221771Y-77864392D01*
X136245396Y-77797136D01*
X136278514Y-77734093D01*
X136320097Y-77625830D01*
X136332282Y-77588973D01*
X136542197Y-77055325D01*
X136816944Y-76564039D01*
X137150530Y-76121623D01*
X137536966Y-75734583D01*
X137970260Y-75409427D01*
X138444422Y-75152662D01*
X138654192Y-75066827D01*
X138914351Y-74973485D01*
X139141453Y-74901849D01*
X139353701Y-74849134D01*
X139569295Y-74812558D01*
X139806438Y-74789336D01*
X140083329Y-74776683D01*
X140418171Y-74771816D01*
X140585438Y-74771424D01*
X140944430Y-74773630D01*
G37*
D13*
%TO.C,SW8*%
X144462500Y-116998750D02*
X158432500Y-116998750D01*
X144462500Y-130968750D02*
X144462500Y-116998750D01*
X158432500Y-116998750D02*
X158432500Y-130968750D01*
X158432500Y-130968750D02*
X144462500Y-130968750D01*
%TO.C,SW7*%
X125412500Y-116998750D02*
X139382500Y-116998750D01*
X125412500Y-130968750D02*
X125412500Y-116998750D01*
X139382500Y-116998750D02*
X139382500Y-130968750D01*
X139382500Y-130968750D02*
X125412500Y-130968750D01*
%TO.C,SW2*%
X144462500Y-97948750D02*
X158432500Y-97948750D01*
X144462500Y-111918750D02*
X144462500Y-97948750D01*
X158432500Y-97948750D02*
X158432500Y-111918750D01*
X158432500Y-111918750D02*
X144462500Y-111918750D01*
%TO.C,SW1*%
X125412500Y-97948750D02*
X139382500Y-97948750D01*
X125412500Y-111918750D02*
X125412500Y-97948750D01*
X139382500Y-97948750D02*
X139382500Y-111918750D01*
X139382500Y-111918750D02*
X125412500Y-111918750D01*
D15*
%TO.C,U1*%
X162083750Y-92329000D02*
X162083750Y-75184000D01*
X163988750Y-94234000D02*
X177958750Y-94234000D01*
X166478750Y-73279000D02*
X166482478Y-72368728D01*
X166982478Y-71869000D02*
X174977750Y-71869000D01*
X175477750Y-72369000D02*
X175477750Y-73279000D01*
D11*
X177958750Y-73279000D02*
X163988750Y-73279000D01*
D15*
X177958750Y-73279000D02*
X163988750Y-73279000D01*
X179863750Y-92329000D02*
X179863750Y-75184000D01*
X162083750Y-75184000D02*
G75*
G02*
X163988750Y-73279000I1905001J-1D01*
G01*
X163988750Y-94234000D02*
G75*
G02*
X162083750Y-92329000I1J1905001D01*
G01*
X166482478Y-72368728D02*
G75*
G02*
X166982478Y-71869001I500018J-291D01*
G01*
X174977750Y-71869000D02*
G75*
G02*
X175477750Y-72369000I0J-500000D01*
G01*
X177958750Y-73279000D02*
G75*
G02*
X179863750Y-75184000I0J-1905000D01*
G01*
X179863750Y-92329000D02*
G75*
G02*
X177958750Y-94234000I-1905000J0D01*
G01*
D16*
X162275750Y-73520000D02*
G75*
G02*
X161771750Y-73520000I-252000J0D01*
G01*
X161771750Y-73520000D02*
G75*
G02*
X162275750Y-73520000I252000J0D01*
G01*
X163418750Y-74400000D02*
G75*
G02*
X162914750Y-74400000I-252000J0D01*
G01*
X162914750Y-74400000D02*
G75*
G02*
X163418750Y-74400000I252000J0D01*
G01*
%TD*%
M02*
