%TF.GenerationSoftware,KiCad,Pcbnew,9.0.2*%
%TF.CreationDate,2025-07-11T15:40:20+10:00*%
%TF.ProjectId,Exportable hackpad pccb,4578706f-7274-4616-926c-65206861636b,rev?*%
%TF.SameCoordinates,Original*%
%TF.FileFunction,Soldermask,Bot*%
%TF.FilePolarity,Negative*%
%FSLAX46Y46*%
G04 Gerber Fmt 4.6, Leading zero omitted, Abs format (unit mm)*
G04 Created by KiCad (PCBNEW 9.0.2) date 2025-07-11 15:40:20*
%MOMM*%
%LPD*%
G01*
G04 APERTURE LIST*
G04 Aperture macros list*
%AMRoundRect*
0 Rectangle with rounded corners*
0 $1 Rounding radius*
0 $2 $3 $4 $5 $6 $7 $8 $9 X,Y pos of 4 corners*
0 Add a 4 corners polygon primitive as box body*
4,1,4,$2,$3,$4,$5,$6,$7,$8,$9,$2,$3,0*
0 Add four circle primitives for the rounded corners*
1,1,$1+$1,$2,$3*
1,1,$1+$1,$4,$5*
1,1,$1+$1,$6,$7*
1,1,$1+$1,$8,$9*
0 Add four rect primitives between the rounded corners*
20,1,$1+$1,$2,$3,$4,$5,0*
20,1,$1+$1,$4,$5,$6,$7,0*
20,1,$1+$1,$6,$7,$8,$9,0*
20,1,$1+$1,$8,$9,$2,$3,0*%
G04 Aperture macros list end*
%ADD10C,1.700000*%
%ADD11C,4.000000*%
%ADD12C,2.200000*%
%ADD13C,1.524000*%
%ADD14RoundRect,0.250000X0.550000X-0.550000X0.550000X0.550000X-0.550000X0.550000X-0.550000X-0.550000X0*%
%ADD15C,1.600000*%
%ADD16R,1.600000X0.850000*%
G04 APERTURE END LIST*
D10*
%TO.C,SW3*%
X165417500Y-104933750D03*
D11*
X170497500Y-104933750D03*
D10*
X175577500Y-104933750D03*
D12*
X173037500Y-99853750D03*
X166687500Y-102393750D03*
%TD*%
D10*
%TO.C,SW9*%
X165417500Y-123983750D03*
D11*
X170497500Y-123983750D03*
D10*
X175577500Y-123983750D03*
D12*
X173037500Y-118903750D03*
X166687500Y-121443750D03*
%TD*%
D10*
%TO.C,SW8*%
X146367500Y-123983750D03*
D11*
X151447500Y-123983750D03*
D10*
X156527500Y-123983750D03*
D12*
X153987500Y-118903750D03*
X147637500Y-121443750D03*
%TD*%
D10*
%TO.C,SW7*%
X127317500Y-123983750D03*
D11*
X132397500Y-123983750D03*
D10*
X137477500Y-123983750D03*
D12*
X134937500Y-118903750D03*
X128587500Y-121443750D03*
%TD*%
D10*
%TO.C,SW2*%
X146367500Y-104933750D03*
D11*
X151447500Y-104933750D03*
D10*
X156527500Y-104933750D03*
D12*
X153987500Y-99853750D03*
X147637500Y-102393750D03*
%TD*%
D10*
%TO.C,SW1*%
X127317500Y-104933750D03*
D11*
X132397500Y-104933750D03*
D10*
X137477500Y-104933750D03*
D12*
X134937500Y-99853750D03*
X128587500Y-102393750D03*
%TD*%
D13*
%TO.C,U1*%
X163353750Y-76200000D03*
X163353750Y-78740000D03*
X163353750Y-81280000D03*
X163353750Y-83820000D03*
X163353750Y-86360000D03*
X163353750Y-88900000D03*
X163353750Y-91440000D03*
X178593750Y-91440000D03*
X178593750Y-88900000D03*
X178593750Y-86360000D03*
X178593750Y-83820000D03*
X178593750Y-81280000D03*
X178593750Y-78740000D03*
X178593750Y-76200000D03*
%TD*%
D14*
%TO.C,D8*%
X141922500Y-107791250D03*
D15*
X141922500Y-100171250D03*
%TD*%
D14*
%TO.C,D6*%
X160972500Y-107791250D03*
D15*
X160972500Y-100171250D03*
%TD*%
D14*
%TO.C,D10*%
X180022500Y-126841250D03*
D15*
X180022500Y-119221250D03*
%TD*%
D14*
%TO.C,D5*%
X141922500Y-126841250D03*
D15*
X141922500Y-119221250D03*
%TD*%
D14*
%TO.C,D7*%
X160972500Y-126841250D03*
D15*
X160972500Y-119221250D03*
%TD*%
D16*
%TO.C,D1*%
X132418750Y-84915000D03*
X132418750Y-86665000D03*
X128918750Y-86665000D03*
X128918750Y-84915000D03*
%TD*%
%TO.C,D4*%
X154428750Y-84385000D03*
X154428750Y-86135000D03*
X150928750Y-86135000D03*
X150928750Y-84385000D03*
%TD*%
D14*
%TO.C,D9*%
X180022500Y-107791250D03*
D15*
X180022500Y-100171250D03*
%TD*%
M02*
