%TF.GenerationSoftware,KiCad,Pcbnew,9.0.2*%
%TF.CreationDate,2025-07-11T15:40:20+10:00*%
%TF.ProjectId,Exportable hackpad pccb,4578706f-7274-4616-926c-65206861636b,rev?*%
%TF.SameCoordinates,Original*%
%TF.FileFunction,Copper,L1,Top*%
%TF.FilePolarity,Positive*%
%FSLAX46Y46*%
G04 Gerber Fmt 4.6, Leading zero omitted, Abs format (unit mm)*
G04 Created by KiCad (PCBNEW 9.0.2) date 2025-07-11 15:40:20*
%MOMM*%
%LPD*%
G01*
G04 APERTURE LIST*
G04 Aperture macros list*
%AMRoundRect*
0 Rectangle with rounded corners*
0 $1 Rounding radius*
0 $2 $3 $4 $5 $6 $7 $8 $9 X,Y pos of 4 corners*
0 Add a 4 corners polygon primitive as box body*
4,1,4,$2,$3,$4,$5,$6,$7,$8,$9,$2,$3,0*
0 Add four circle primitives for the rounded corners*
1,1,$1+$1,$2,$3*
1,1,$1+$1,$4,$5*
1,1,$1+$1,$6,$7*
1,1,$1+$1,$8,$9*
0 Add four rect primitives between the rounded corners*
20,1,$1+$1,$2,$3,$4,$5,0*
20,1,$1+$1,$4,$5,$6,$7,0*
20,1,$1+$1,$6,$7,$8,$9,0*
20,1,$1+$1,$8,$9,$2,$3,0*%
G04 Aperture macros list end*
%TA.AperFunction,ComponentPad*%
%ADD10C,2.200000*%
%TD*%
%TA.AperFunction,SMDPad,CuDef*%
%ADD11RoundRect,0.152400X1.063600X0.609600X-1.063600X0.609600X-1.063600X-0.609600X1.063600X-0.609600X0*%
%TD*%
%TA.AperFunction,ComponentPad*%
%ADD12C,1.524000*%
%TD*%
%TA.AperFunction,SMDPad,CuDef*%
%ADD13RoundRect,0.152400X-1.063600X-0.609600X1.063600X-0.609600X1.063600X0.609600X-1.063600X0.609600X0*%
%TD*%
%TA.AperFunction,ComponentPad*%
%ADD14RoundRect,0.250000X0.550000X-0.550000X0.550000X0.550000X-0.550000X0.550000X-0.550000X-0.550000X0*%
%TD*%
%TA.AperFunction,ComponentPad*%
%ADD15C,1.600000*%
%TD*%
%TA.AperFunction,ViaPad*%
%ADD16C,0.600000*%
%TD*%
%TA.AperFunction,Conductor*%
%ADD17C,0.200000*%
%TD*%
G04 APERTURE END LIST*
D10*
%TO.P,SW3,1,1*%
%TO.N,Net-(D9-A)*%
X173037500Y-99853750D03*
%TO.P,SW3,2,2*%
%TO.N,Colum 3*%
X166687500Y-102393750D03*
%TD*%
%TO.P,SW9,1,1*%
%TO.N,Net-(D10-A)*%
X173037500Y-118903750D03*
%TO.P,SW9,2,2*%
%TO.N,Colum 3*%
X166687500Y-121443750D03*
%TD*%
%TO.P,SW8,1,1*%
%TO.N,Net-(D7-A)*%
X153987500Y-118903750D03*
%TO.P,SW8,2,2*%
%TO.N,Colum 2*%
X147637500Y-121443750D03*
%TD*%
%TO.P,SW7,1,1*%
%TO.N,Net-(D5-A)*%
X134937500Y-118903750D03*
%TO.P,SW7,2,2*%
%TO.N,Colum 1*%
X128587500Y-121443750D03*
%TD*%
%TO.P,SW2,1,1*%
%TO.N,Net-(D6-A)*%
X153987500Y-99853750D03*
%TO.P,SW2,2,2*%
%TO.N,Colum 2*%
X147637500Y-102393750D03*
%TD*%
%TO.P,SW1,1,1*%
%TO.N,Net-(D8-A)*%
X134937500Y-99853750D03*
%TO.P,SW1,2,2*%
%TO.N,Colum 1*%
X128587500Y-102393750D03*
%TD*%
D11*
%TO.P,U1,1,GPIO26/ADC0/A0*%
%TO.N,unconnected-(U1-GPIO26{slash}ADC0{slash}A0-Pad1)*%
X162518750Y-76200000D03*
D12*
X163353750Y-76200000D03*
D11*
%TO.P,U1,2,GPIO27/ADC1/A1*%
%TO.N,unconnected-(U1-GPIO27{slash}ADC1{slash}A1-Pad2)*%
X162518750Y-78740000D03*
D12*
X163353750Y-78740000D03*
D11*
%TO.P,U1,3,GPIO28/ADC2/A2*%
%TO.N,unconnected-(U1-GPIO28{slash}ADC2{slash}A2-Pad3)*%
X162518750Y-81280000D03*
D12*
X163353750Y-81280000D03*
D11*
%TO.P,U1,4,GPIO29/ADC3/A3*%
%TO.N,unconnected-(U1-GPIO29{slash}ADC3{slash}A3-Pad4)*%
X162518750Y-83820000D03*
D12*
X163353750Y-83820000D03*
D11*
%TO.P,U1,5,GPIO6/SDA*%
%TO.N,Neo-Pix*%
X162518750Y-86360000D03*
D12*
X163353750Y-86360000D03*
D11*
%TO.P,U1,6,GPIO7/SCL*%
%TO.N,Row 1*%
X162518750Y-88900000D03*
D12*
X163353750Y-88900000D03*
D11*
%TO.P,U1,7,GPIO0/TX*%
%TO.N,Row 2*%
X162518750Y-91440000D03*
D12*
X163353750Y-91440000D03*
%TO.P,U1,8,GPIO1/RX*%
%TO.N,Colum 1*%
X178593750Y-91440000D03*
D13*
X179428750Y-91440000D03*
D12*
%TO.P,U1,9,GPIO2/SCK*%
%TO.N,Colum 2*%
X178593750Y-88900000D03*
D13*
X179428750Y-88900000D03*
D12*
%TO.P,U1,10,GPIO4/MISO*%
%TO.N,Colum 3*%
X178593750Y-86360000D03*
D13*
X179428750Y-86360000D03*
D12*
%TO.P,U1,11,GPIO3/MOSI*%
%TO.N,unconnected-(U1-GPIO3{slash}MOSI-Pad11)*%
X178593750Y-83820000D03*
D13*
X179428750Y-83820000D03*
D12*
%TO.P,U1,12,3V3*%
%TO.N,unconnected-(U1-3V3-Pad12)*%
X178593750Y-81280000D03*
D13*
X179428750Y-81280000D03*
D12*
%TO.P,U1,13,GND*%
%TO.N,GND*%
X178593750Y-78740000D03*
D13*
X179428750Y-78740000D03*
D12*
%TO.P,U1,14,VBUS*%
%TO.N,+5V*%
X178593750Y-76200000D03*
D13*
X179428750Y-76200000D03*
%TD*%
D14*
%TO.P,D8,1,K*%
%TO.N,Row 1*%
X141922500Y-107791250D03*
D15*
%TO.P,D8,2,A*%
%TO.N,Net-(D8-A)*%
X141922500Y-100171250D03*
%TD*%
D14*
%TO.P,D6,1,K*%
%TO.N,Row 1*%
X160972500Y-107791250D03*
D15*
%TO.P,D6,2,A*%
%TO.N,Net-(D6-A)*%
X160972500Y-100171250D03*
%TD*%
D14*
%TO.P,D10,1,K*%
%TO.N,Row 2*%
X180022500Y-126841250D03*
D15*
%TO.P,D10,2,A*%
%TO.N,Net-(D10-A)*%
X180022500Y-119221250D03*
%TD*%
D14*
%TO.P,D5,1,K*%
%TO.N,Row 2*%
X141922500Y-126841250D03*
D15*
%TO.P,D5,2,A*%
%TO.N,Net-(D5-A)*%
X141922500Y-119221250D03*
%TD*%
D14*
%TO.P,D7,1,K*%
%TO.N,Row 2*%
X160972500Y-126841250D03*
D15*
%TO.P,D7,2,A*%
%TO.N,Net-(D7-A)*%
X160972500Y-119221250D03*
%TD*%
D14*
%TO.P,D9,1,K*%
%TO.N,Row 1*%
X180022500Y-107791250D03*
D15*
%TO.P,D9,2,A*%
%TO.N,Net-(D9-A)*%
X180022500Y-100171250D03*
%TD*%
D16*
%TO.N,Neo-Pix*%
X150928750Y-86135000D03*
%TO.N,Row 1*%
X143628750Y-103280000D03*
%TD*%
D17*
%TO.N,Neo-Pix*%
X163353750Y-86360000D02*
X151153750Y-86360000D01*
X151153750Y-86360000D02*
X150928750Y-86135000D01*
X150868750Y-86360000D02*
X150778750Y-86270000D01*
%TO.N,Net-(D5-A)*%
X134937500Y-118903750D02*
X141605000Y-118903750D01*
X141605000Y-118903750D02*
X141922500Y-119221250D01*
%TO.N,Colum 2*%
X147637500Y-102393750D02*
X147637500Y-121443750D01*
%TO.N,Net-(D6-A)*%
X153987500Y-99853750D02*
X160655000Y-99853750D01*
%TO.N,Net-(D7-A)*%
X160655000Y-118903750D02*
X160972500Y-119221250D01*
X153987500Y-118903750D02*
X160655000Y-118903750D01*
%TO.N,Row 1*%
X141922500Y-104986250D02*
X141922500Y-107791250D01*
X143628750Y-103280000D02*
X141922500Y-104986250D01*
%TO.N,Colum 1*%
X128587500Y-102393750D02*
X128587500Y-121443750D01*
X161263124Y-92503000D02*
X160200124Y-91440000D01*
X178593750Y-91440000D02*
X177530750Y-92503000D01*
X139541250Y-91440000D02*
X128587500Y-102393750D01*
X160200124Y-91440000D02*
X139541250Y-91440000D01*
X177530750Y-92503000D02*
X161263124Y-92503000D01*
%TO.N,Colum 3*%
X178593750Y-86360000D02*
X179671380Y-86360000D01*
X180945750Y-87634370D02*
X180945750Y-92241626D01*
X179671380Y-86360000D02*
X180945750Y-87634370D01*
X166687500Y-102393750D02*
X166687500Y-121443750D01*
X180945750Y-92241626D02*
X174734626Y-98452750D01*
X174734626Y-98452750D02*
X170628500Y-98452750D01*
X170628500Y-98452750D02*
X166687500Y-102393750D01*
%TO.N,+5V*%
X179207376Y-76200000D02*
X178593750Y-76200000D01*
%TO.N,Net-(D8-A)*%
X134937500Y-99853750D02*
X141605000Y-99853750D01*
X141605000Y-99853750D02*
X141922500Y-100171250D01*
%TO.N,Net-(D9-A)*%
X179705000Y-99853750D02*
X180022500Y-100171250D01*
X173037500Y-99853750D02*
X179705000Y-99853750D01*
%TO.N,Net-(D10-A)*%
X173037500Y-118903750D02*
X179705000Y-118903750D01*
X179705000Y-118903750D02*
X180022500Y-119221250D01*
%TO.N,GND*%
X179671380Y-78740000D02*
X178593750Y-78740000D01*
%TD*%
M02*
